<svg width="562" height="562" viewBox="0 0 562 562" fill="none" xmlns="http://www.w3.org/2000/svg">
<path opacity="0.9" d="M252.751 30.5806L308.065 40.5283L364.212 42.9985L409.732 75.9609L459.247 102.548L485.957 151.996L519.033 197.434L521.643 253.575L531.729 308.864L509.722 360.577L494.82 414.767L452.555 451.811L415.616 494.168L361.464 509.205L309.806 531.341L254.492 521.393L198.345 518.923L152.825 485.961L103.31 459.374L76.5995 409.925L43.5238 364.488L40.9135 308.347L30.828 253.058L52.8347 201.344L67.7369 147.155L110.002 110.111L146.94 67.7535L201.093 52.7162L252.751 30.5806Z" stroke="#E7D1C1" stroke-width="32" stroke-dasharray="0.5 10"/>
</svg>
