<svg width="30" height="22" viewBox="0 0 30 22" fill="none" xmlns="http://www.w3.org/2000/svg">
<path d="M29.5125 11.3286C29.4013 11.1331 29.2523 10.9617 29.0742 10.8243C28.8961 10.687 28.6924 10.5865 28.475 10.5286C27.4891 10.2765 26.4677 10.192 25.4538 10.2786C26.0375 7.69988 25.6563 5.66488 25.2725 4.47863C25.1386 4.05957 24.8534 3.7054 24.4726 3.48517C24.0917 3.26493 23.6425 3.19442 23.2125 3.28738C21.8778 3.58671 20.6142 4.14334 19.4925 4.92613C18.7119 3.22787 17.5316 1.74391 16.0525 0.601129C15.749 0.372459 15.3794 0.248779 14.9994 0.248779C14.6194 0.248779 14.2497 0.372459 13.9463 0.601129C12.468 1.74441 11.2882 3.22826 10.5075 4.92613C9.3854 4.14319 8.1214 3.58655 6.78626 3.28738C6.35626 3.19453 5.90709 3.26526 5.52642 3.48575C5.14576 3.70625 4.86092 4.06068 4.72751 4.47988C4.34376 5.66613 3.96251 7.70113 4.54626 10.2799C3.53228 10.1932 2.51095 10.2777 1.52501 10.5299C1.30764 10.5877 1.10396 10.6882 0.925841 10.8256C0.747718 10.9629 0.598712 11.1344 0.487508 11.3299C0.370639 11.5308 0.294972 11.753 0.264925 11.9835C0.234879 12.214 0.251055 12.4482 0.312508 12.6724C0.726258 14.2074 2.00001 17.1249 5.86501 19.4386C9.73001 21.7524 13.1613 21.7499 15 21.7499C16.8388 21.7499 20.265 21.7499 24.1325 19.4386C28 17.1274 29.2713 14.2074 29.685 12.6711C29.7468 12.4471 29.7634 12.213 29.7338 11.9825C29.7042 11.752 29.629 11.5297 29.5125 11.3286ZM20.06 6.36238C21.0892 5.58633 22.2709 5.03679 23.5275 4.74988C23.5943 4.73626 23.6637 4.74789 23.7223 4.78253C23.781 4.81717 23.8247 4.87235 23.845 4.93738C24.3375 6.46488 24.8213 9.62488 22.5213 13.6249C21.5979 15.2025 20.4146 16.6128 19.0213 17.7961C19.9813 16.1249 20.75 13.8661 20.75 10.8961C20.7617 9.35786 20.5288 7.82751 20.06 6.36238ZM6.15501 4.94113C6.17456 4.87541 6.21796 4.81936 6.2767 4.78398C6.33543 4.7486 6.40527 4.73643 6.47251 4.74988C7.72914 5.03679 8.91084 5.58633 9.94001 6.36238C9.47118 7.82751 9.23827 9.35786 9.25001 10.8961C9.25001 13.8661 10.0188 16.1274 10.9763 17.7924C9.5826 16.6094 8.39922 15.1991 7.47626 13.6211C5.17876 9.62488 5.66251 6.46488 6.15501 4.94113ZM6.63501 18.1499C3.22251 16.1111 2.11626 13.5974 1.76001 12.2749C1.75067 12.2413 1.74818 12.2062 1.75269 12.1716C1.7572 12.137 1.76861 12.1037 1.78626 12.0736C1.8133 12.0253 1.85815 11.9894 1.91126 11.9736C2.92151 11.7227 3.97185 11.6772 5.00001 11.8399C5.31701 12.7181 5.71148 13.5665 6.17876 14.3749C7.46122 16.588 9.21003 18.4955 11.3038 19.9649C9.65313 19.6383 8.07281 19.0239 6.63501 18.1499ZM15 20.1074C13.915 19.3324 10.75 16.5824 10.75 10.8961C10.75 5.47613 13.6175 2.72863 14.85 1.79863C14.8933 1.76617 14.9459 1.74863 15 1.74863C15.0541 1.74863 15.1067 1.76617 15.15 1.79863C16.3825 2.72863 19.25 5.47613 19.25 10.8961C19.25 16.6174 16.1013 19.3336 15 20.1074ZM28.2375 12.2799C27.8813 13.5974 26.775 16.1111 23.3625 18.1549C21.9231 19.0271 20.3415 19.6394 18.69 19.9636C20.7837 18.4943 22.5325 16.5868 23.815 14.3736C24.2844 13.5659 24.6809 12.7179 25 11.8399C26.0293 11.6785 27.0805 11.7257 28.0913 11.9786C28.1444 11.9944 28.1892 12.0303 28.2163 12.0786C28.2335 12.1089 28.2445 12.1423 28.2485 12.1768C28.2526 12.2114 28.2497 12.2465 28.24 12.2799H28.2375Z" fill="black"/>
</svg>
