<svg width="24" height="24" viewBox="0 0 24 24" fill="none" xmlns="http://www.w3.org/2000/svg">
<g clip-path="url(#clip0_56_8)">
<path d="M13 9C13 9 14 7 14 5C14 3 12 1 12 1C12 1 10 3 10 5C10 7 11 9 11 9M12 15C12.7956 15 13.5587 14.6839 14.1213 14.1213C14.6839 13.5587 15 12.7956 15 12C15 11.2044 14.6839 10.4413 14.1213 9.87868C13.5587 9.31607 12.7956 9 12 9C11.2044 9 10.4413 9.31607 9.87868 9.87868C9.31607 10.4413 9 11.2044 9 12C9 12.7956 9.31607 13.5587 9.87868 14.1213C10.4413 14.6839 11.2044 15 12 15Z" stroke="black" stroke-width="1.5" stroke-miterlimit="1.5" stroke-linecap="round" stroke-linejoin="round"/>
<path d="M9 11C9 11 7 9.99998 5 9.99998C3 9.99998 1 12 1 12C1 12 3 14 5 14C7 14 9 13 9 13M13 15C13 15 14 17 14 19C14 21 12 23 12 23C12 23 10 21 10 19C10 17 11 15 11 15M15 11C15 11 17 9.99998 19 9.99998C21 9.99998 23 12 23 12C23 12 21 14 19 14C17 14 15 13 15 13M10.586 9.17198C10.586 9.17198 9.879 7.04998 8.464 5.63598C7.05 4.22198 4.222 4.22198 4.222 4.22198C4.222 4.22198 4.222 7.04998 5.636 8.46498C7.05 9.87898 9.172 10.586 9.172 10.586M9.172 13.414C9.172 13.414 7.05 14.121 5.636 15.536C4.222 16.95 4.222 19.778 4.222 19.778C4.222 19.778 7.05 19.778 8.464 18.364C9.878 16.95 10.586 14.828 10.586 14.828M14.829 13.414C14.829 13.414 16.949 14.121 18.364 15.536C19.778 16.95 19.778 19.778 19.778 19.778C19.778 19.778 16.95 19.778 15.536 18.364C14.122 16.95 13.414 14.828 13.414 14.828M13.414 9.17198C13.414 9.17198 14.121 7.04998 15.536 5.63598C16.95 4.22198 19.778 4.22198 19.778 4.22198C19.778 4.22198 19.778 7.04998 18.364 8.46498C16.95 9.87898 14.828 10.586 14.828 10.586" stroke="black" stroke-width="1.5" stroke-miterlimit="1.5" stroke-linecap="round" stroke-linejoin="round"/>
</g>
<defs>
<clipPath id="clip0_56_8">
<rect width="24" height="24" fill="white"/>
</clipPath>
</defs>
</svg>
