<svg width="228" height="37" viewBox="0 0 228 37" fill="none" xmlns="http://www.w3.org/2000/svg">
<path d="M40.7451 28.0537C40.7158 28.0732 40.584 28.1416 40.3496 28.2588C40.1152 28.376 39.8076 28.5029 39.4268 28.6396C39.0459 28.7764 38.6113 28.8984 38.123 29.0059C37.6348 29.123 37.127 29.1816 36.5996 29.1816C35.7402 29.1816 34.9688 29.0303 34.2852 28.7275C33.6016 28.4248 33.0205 27.9951 32.542 27.4385C32.0732 26.8916 31.7119 26.2275 31.458 25.4463C31.2041 24.6748 31.0771 23.8154 31.0771 22.8682C31.0771 21.96 31.1895 20.9639 31.4141 19.8799C31.6387 18.7861 31.9316 17.6631 32.293 16.5107C32.6543 15.3584 33.0596 14.2061 33.5088 13.0537C33.9678 11.9014 34.4268 10.8076 34.8857 9.77246C35.3545 8.72754 35.7988 7.77539 36.2188 6.91602C36.6387 6.04688 37 5.32422 37.3027 4.74805C36.7559 5.37305 36.1309 6.0957 35.4277 6.91602C34.7246 7.72656 33.9727 8.62012 33.1719 9.59668C32.3809 10.5635 31.5557 11.5986 30.6963 12.7021C29.8369 13.7959 28.9678 14.9385 28.0889 16.1299C27.2197 17.3115 26.3555 18.5273 25.4961 19.7773C24.6367 21.0176 23.8164 22.2676 23.0352 23.5273L22.332 23.293C22.4785 21.7012 22.7178 20.124 23.0498 18.5615C23.3916 16.9893 23.7725 15.4805 24.1924 14.0352C24.6221 12.5801 25.0713 11.2178 25.54 9.94824C26.0186 8.66895 26.4727 7.52637 26.9023 6.52051C26.248 7.41895 25.5938 8.39551 24.9395 9.4502C24.2949 10.4951 23.6406 11.5742 22.9766 12.6875C22.3125 13.791 21.6289 14.9043 20.9258 16.0273C20.2227 17.1406 19.4902 18.2148 18.7285 19.25C17.9668 20.2754 17.1611 21.2373 16.3115 22.1357C15.4717 23.0244 14.5732 23.7959 13.6162 24.4502C12.6689 25.1143 11.6533 25.6367 10.5693 26.0176C9.49512 26.3984 8.34277 26.5889 7.1123 26.5889C6.16504 26.5889 5.30566 26.4473 4.53418 26.1641C3.7627 25.8809 3.09863 25.4902 2.54199 24.9922C1.99512 24.5039 1.5752 23.9277 1.28223 23.2637C0.979492 22.5996 0.828125 21.8818 0.828125 21.1104C0.828125 20.3584 0.950195 19.6797 1.19434 19.0742C1.42871 18.459 1.74609 17.917 2.14648 17.4482C2.54688 16.9697 3.01074 16.5596 3.53809 16.2178C4.0752 15.8662 4.63672 15.5781 5.22266 15.3535C5.80859 15.1289 6.39941 14.9629 6.99512 14.8555C7.60059 14.748 8.17676 14.6943 8.72363 14.6943C9.85645 14.6943 10.9404 14.8311 11.9756 15.1045C13.0107 15.3682 14.0068 15.8418 14.9639 16.5254L14.4512 17.0967C14.4414 17.0869 14.3145 16.999 14.0703 16.833C13.8262 16.6572 13.4746 16.4668 13.0156 16.2617C12.5566 16.0566 11.9854 15.8711 11.3018 15.7051C10.6279 15.5391 9.85645 15.4561 8.9873 15.4561C8.14746 15.4561 7.33203 15.5684 6.54102 15.793C5.75977 16.0176 5.06641 16.3594 4.46094 16.8184C3.86523 17.2676 3.38672 17.8389 3.02539 18.5322C2.66406 19.2158 2.4834 20.0215 2.4834 20.9492C2.4834 21.6133 2.61035 22.2285 2.86426 22.7949C3.12793 23.3613 3.48926 23.8496 3.94824 24.2598C4.40723 24.6797 4.95898 25.0068 5.60352 25.2412C6.24805 25.4756 6.96094 25.5928 7.74219 25.5928C8.91406 25.5928 10.0371 25.3438 11.1113 24.8457C12.1855 24.3477 13.2207 23.6738 14.2168 22.8242C15.2129 21.9746 16.1699 20.9834 17.0879 19.8506C18.0156 18.7178 18.9043 17.5215 19.7539 16.2617C20.6133 15.002 21.4434 13.708 22.2441 12.3799C23.0449 11.0518 23.8213 9.77246 24.5732 8.54199C25.3252 7.30176 26.0576 6.14453 26.7705 5.07031C27.4834 3.98633 28.1816 3.05371 28.8652 2.27246L29.5244 2.66797C29.0947 3.97656 28.7236 5.12891 28.4111 6.125C28.0986 7.11133 27.8252 7.98047 27.5908 8.73242C27.3662 9.48438 27.1709 10.1338 27.0049 10.6807C26.8486 11.2275 26.7119 11.7158 26.5947 12.1455C26.4775 12.5752 26.3701 12.9658 26.2725 13.3174C26.1846 13.6592 26.0918 14.001 25.9941 14.3428C25.9062 14.6846 25.8037 15.0459 25.6865 15.4268C25.5693 15.8076 25.4277 16.252 25.2617 16.7598C25.0957 17.2578 24.9004 17.8389 24.6758 18.5029C24.4512 19.1572 24.1777 19.9336 23.8555 20.832C24.6758 19.5918 25.5156 18.3711 26.375 17.1699C27.2441 15.9688 28.1084 14.8066 28.9678 13.6836C29.8271 12.5605 30.667 11.4863 31.4873 10.4609C32.3174 9.43555 33.0986 8.4834 33.8311 7.60449C34.5732 6.72559 35.252 5.92969 35.8672 5.2168C36.4922 4.49414 37.0342 3.87891 37.4932 3.37109C37.9521 2.86328 38.3086 2.46777 38.5625 2.18457C38.8262 1.90137 38.9629 1.75488 38.9727 1.74512L39.5879 2.19922C39.0117 3.625 38.4404 5.05566 37.874 6.49121C37.3076 7.91699 36.7607 9.30859 36.2334 10.666C35.7158 12.0234 35.2324 13.332 34.7832 14.5918C34.334 15.8516 33.9434 17.0332 33.6113 18.1367C33.2793 19.2305 33.0156 20.2314 32.8203 21.1396C32.6348 22.0381 32.542 22.8096 32.542 23.4541C32.542 24.2158 32.6299 24.9043 32.8057 25.5195C32.9912 26.1348 33.2549 26.6572 33.5967 27.0869C33.9385 27.5166 34.3584 27.8438 34.8564 28.0684C35.3643 28.3027 35.9355 28.4199 36.5703 28.4199C37.0488 28.4199 37.5127 28.3662 37.9619 28.2588C38.4209 28.1514 38.8262 28.0342 39.1777 27.9072C39.5293 27.7803 39.8125 27.6631 40.0273 27.5557C40.2422 27.4482 40.3545 27.3945 40.3643 27.3945L40.7451 28.0537ZM49.915 13.2588C49.7881 13.5127 49.6074 13.8447 49.373 14.2549C49.1484 14.665 48.9043 15.1191 48.6406 15.6172C48.377 16.1055 48.1084 16.6182 47.835 17.1553C47.5713 17.6924 47.3271 18.2197 47.1025 18.7373C46.8877 19.2451 46.707 19.7285 46.5605 20.1875C46.4238 20.6367 46.3555 21.0176 46.3555 21.3301C46.3555 21.6426 46.4141 21.8477 46.5312 21.9453C46.6582 22.0332 46.8193 22.0771 47.0146 22.0771C47.2979 22.0771 47.5859 21.9941 47.8789 21.8281C48.1816 21.6621 48.4746 21.4473 48.7578 21.1836C49.0508 20.9199 49.334 20.6221 49.6074 20.29C49.8809 19.958 50.1348 19.626 50.3691 19.2939C50.6133 18.9521 50.833 18.6299 51.0283 18.3271C51.2236 18.0146 51.3896 17.751 51.5264 17.5361L52.0537 17.9463C51.8877 18.2588 51.6924 18.5957 51.4678 18.957C51.2432 19.3184 50.9941 19.6846 50.7207 20.0557C50.457 20.417 50.1689 20.7686 49.8564 21.1104C49.5439 21.4521 49.2119 21.7549 48.8604 22.0186C48.5186 22.2822 48.1572 22.4922 47.7764 22.6484C47.3955 22.8047 47.0049 22.8828 46.6045 22.8828C46.0186 22.8828 45.5889 22.707 45.3154 22.3555C45.042 22.0039 44.9053 21.5498 44.9053 20.9932C44.9053 20.9541 44.9053 20.8711 44.9053 20.7441C44.915 20.6074 44.9297 20.5 44.9492 20.4219C44.4609 21.0371 43.9922 21.5449 43.543 21.9453C43.1035 22.3457 42.6738 22.6631 42.2539 22.8975C41.8438 23.1318 41.4434 23.293 41.0527 23.3809C40.6719 23.4785 40.3057 23.5273 39.9541 23.5273C39.583 23.5273 39.2314 23.4639 38.8994 23.3369C38.5771 23.2197 38.2939 23.0439 38.0498 22.8096C37.7959 22.5752 37.6006 22.2871 37.4639 21.9453C37.3174 21.6035 37.2441 21.208 37.2441 20.7588C37.2441 20.2021 37.3711 19.5674 37.625 18.8545C37.8691 18.1318 38.3086 17.3555 38.9434 16.5254C39.4805 15.8125 40.0371 15.2119 40.6133 14.7236C41.1992 14.2354 41.7705 13.8447 42.3271 13.5518C42.8936 13.249 43.4307 13.0342 43.9385 12.9072C44.4463 12.7803 44.9004 12.7168 45.3008 12.7168C46.1992 12.7168 46.8779 12.8682 47.3369 13.1709C47.7959 13.4639 48.0742 13.918 48.1719 14.5332C48.3672 14.2891 48.5723 14.0449 48.7871 13.8008C49.002 13.5566 49.2217 13.3076 49.4463 13.0537L49.915 13.2588ZM45.418 18.8252C45.5449 18.6201 45.7012 18.3613 45.8867 18.0488C46.0723 17.7266 46.2676 17.3994 46.4727 17.0674C46.6777 16.7256 46.8779 16.3984 47.0732 16.0859C47.2686 15.7734 47.4395 15.5098 47.5859 15.2949C47.5859 15.207 47.5713 15.0654 47.542 14.8701C47.5225 14.6748 47.459 14.4795 47.3516 14.2842C47.2441 14.0791 47.0732 13.9033 46.8389 13.7568C46.6045 13.6104 46.2773 13.5371 45.8574 13.5371C45.5547 13.5371 45.2129 13.5859 44.832 13.6836C44.4609 13.7715 44.0605 13.9277 43.6309 14.1523C43.2109 14.3672 42.7764 14.6553 42.3271 15.0166C41.8779 15.3779 41.4287 15.8271 40.9795 16.3643C40.3057 17.1748 39.7832 17.9902 39.4121 18.8105C39.0508 19.6211 38.8701 20.3535 38.8701 21.0078C38.8701 21.5645 38.9971 21.9941 39.251 22.2969C39.5049 22.5996 39.8662 22.751 40.335 22.751C40.8721 22.751 41.375 22.6338 41.8438 22.3994C42.3125 22.1553 42.752 21.8428 43.1621 21.4619C43.5723 21.0811 43.9629 20.6611 44.334 20.2021C44.7051 19.7334 45.0664 19.2744 45.418 18.8252ZM60.7842 17.9463C60.6377 18.1611 60.4619 18.4541 60.2568 18.8252C60.0615 19.1865 59.832 19.582 59.5684 20.0117C59.3047 20.4316 59.0117 20.8613 58.6895 21.3008C58.377 21.7402 58.0303 22.1357 57.6494 22.4873C57.2783 22.8389 56.873 23.127 56.4336 23.3516C55.9941 23.5762 55.5254 23.6885 55.0273 23.6885C54.7539 23.6885 54.4951 23.6445 54.251 23.5566C54.0068 23.4785 53.792 23.3516 53.6064 23.1758C53.4209 23 53.2744 22.7852 53.167 22.5312C53.0596 22.2676 53.0059 21.96 53.0059 21.6084C53.0059 21.1299 53.0986 20.6318 53.2842 20.1143C53.4795 19.5869 53.7041 19.0791 53.958 18.5908C54.2119 18.1025 54.4658 17.6582 54.7197 17.2578C54.9736 16.8477 55.1592 16.5205 55.2764 16.2764C55.3936 16.0322 55.4521 15.8223 55.4521 15.6465C55.4521 15.5195 55.4082 15.4072 55.3203 15.3096C55.2422 15.2119 55.1396 15.1191 55.0127 15.0312C54.8955 14.9336 54.7686 14.8359 54.6318 14.7383C54.5049 14.6309 54.3975 14.5039 54.3096 14.3574C54.0654 14.748 53.8164 15.1436 53.5625 15.5439C53.3379 15.8857 53.0938 16.2715 52.8301 16.7012C52.5664 17.1211 52.3125 17.5361 52.0684 17.9463L51.541 17.5361L54.6758 12.6289L55.1006 12.8486C55.0811 12.9072 55.0469 13 54.998 13.127C54.959 13.2539 54.9395 13.3906 54.9395 13.5371C54.9395 13.6445 54.9541 13.752 54.9834 13.8594C55.0225 13.957 55.0957 14.0498 55.2031 14.1377C55.5938 14.4893 55.9014 14.7627 56.126 14.958C56.3506 15.1436 56.5117 15.2949 56.6094 15.4121C56.7168 15.5195 56.7803 15.6123 56.7998 15.6904C56.8291 15.7588 56.8438 15.8516 56.8438 15.9688C56.8438 16.0859 56.8242 16.2275 56.7852 16.3936C56.7461 16.5596 56.6777 16.7598 56.5801 16.9941C56.4922 17.2285 56.3652 17.5068 56.1992 17.8291C56.043 18.1416 55.8428 18.5078 55.5986 18.9277C55.4521 19.1816 55.3057 19.4404 55.1592 19.7041C55.0225 19.958 54.8955 20.2168 54.7783 20.4805C54.6709 20.7441 54.583 21.0078 54.5146 21.2715C54.4463 21.5352 54.4121 21.7891 54.4121 22.0332C54.4121 22.2188 54.4365 22.3701 54.4854 22.4873C54.5439 22.5947 54.6172 22.6777 54.7051 22.7363C54.793 22.7949 54.8857 22.834 54.9834 22.8535C55.0908 22.873 55.1934 22.8828 55.291 22.8828C55.6133 22.8828 55.9307 22.79 56.2432 22.6045C56.5654 22.4092 56.8779 22.1602 57.1807 21.8574C57.4932 21.5547 57.791 21.2129 58.0742 20.832C58.3672 20.4414 58.6455 20.0459 58.9092 19.6455C59.1729 19.2451 59.417 18.8643 59.6416 18.5029C59.8662 18.1318 60.0664 17.8096 60.2422 17.5361L60.7842 17.9463ZM66.8193 10.0068C66.8193 10.2021 66.7705 10.4072 66.6729 10.6221C66.5752 10.8271 66.4482 11.0127 66.292 11.1787C66.1455 11.3447 65.9795 11.4814 65.7939 11.5889C65.6084 11.6963 65.4229 11.75 65.2373 11.75C65.0713 11.75 64.9443 11.6914 64.8564 11.5742C64.7686 11.4473 64.7246 11.2959 64.7246 11.1201C64.7246 10.9639 64.7539 10.7783 64.8125 10.5635C64.8711 10.3486 64.959 10.1484 65.0762 9.96289C65.1934 9.76758 65.335 9.60156 65.501 9.46484C65.667 9.32812 65.8574 9.25977 66.0723 9.25977C66.2773 9.25977 66.4531 9.33789 66.5996 9.49414C66.7461 9.65039 66.8193 9.82129 66.8193 10.0068ZM64.0801 13.2588C63.9531 13.5127 63.7725 13.8496 63.5381 14.2695C63.3135 14.6797 63.0693 15.1338 62.8057 15.6318C62.542 16.1201 62.2734 16.6377 62 17.1846C61.7266 17.7217 61.4775 18.249 61.2529 18.7666C61.0381 19.2744 60.8623 19.7529 60.7256 20.2021C60.5889 20.6514 60.5205 21.0322 60.5205 21.3447C60.5205 21.6279 60.5791 21.8232 60.6963 21.9307C60.8135 22.0283 60.9795 22.0771 61.1943 22.0771C61.5947 22.0771 61.9854 21.9453 62.3662 21.6816C62.7471 21.418 63.123 21.0762 63.4941 20.6562C63.875 20.2266 64.2461 19.7383 64.6074 19.1914C64.9688 18.6445 65.3301 18.0928 65.6914 17.5361L66.2188 17.9463C65.9355 18.4541 65.6133 18.9961 65.252 19.5723C64.9004 20.1484 64.5049 20.6855 64.0654 21.1836C63.626 21.6719 63.1426 22.0771 62.6152 22.3994C62.0879 22.7217 61.5117 22.8828 60.8867 22.8828C60.3008 22.8828 59.8516 22.707 59.5391 22.3555C59.2266 22.0039 59.0703 21.5498 59.0703 20.9932C59.0703 20.3389 59.2217 19.6553 59.5244 18.9424C59.8271 18.2295 60.2031 17.5264 60.6523 16.833C61.1113 16.1299 61.6045 15.4561 62.1318 14.8115C62.6689 14.167 63.1621 13.5811 63.6113 13.0537L64.0801 13.2588ZM72.1807 19.7334C71.7998 20.1533 71.4141 20.5439 71.0234 20.9053C70.6328 21.2568 70.2471 21.5645 69.8662 21.8281C69.4854 22.0918 69.1094 22.3018 68.7383 22.458C68.377 22.6045 68.0254 22.6777 67.6836 22.6777C67.3027 22.6777 66.9561 22.6094 66.6436 22.4727C66.3408 22.3262 66.0771 22.1211 65.8525 21.8574C65.6377 21.5938 65.4717 21.2812 65.3545 20.9199C65.2373 20.5586 65.1787 20.1582 65.1787 19.7188C65.1787 19.1328 65.3008 18.5225 65.5449 17.8877C65.7891 17.2529 66.1016 16.6377 66.4824 16.042C66.873 15.4365 67.3027 14.8652 67.7715 14.3281C68.25 13.791 68.7139 13.3271 69.1631 12.9365L69.793 13.376C69.6758 13.542 69.5146 13.7715 69.3096 14.0645C69.1045 14.3574 68.8848 14.6992 68.6504 15.0898C68.416 15.4707 68.1768 15.8857 67.9326 16.335C67.6982 16.7842 67.4834 17.2432 67.2881 17.7119C67.0928 18.1807 66.9316 18.6494 66.8047 19.1182C66.6875 19.5869 66.6289 20.0264 66.6289 20.4365C66.6289 20.6318 66.6436 20.8223 66.6729 21.0078C66.7119 21.1836 66.7705 21.3398 66.8486 21.4766C66.9365 21.6133 67.0488 21.7207 67.1855 21.7988C67.3223 21.877 67.498 21.916 67.7129 21.916C68.0547 21.916 68.4258 21.8135 68.8262 21.6084C69.2363 21.3936 69.6562 21.1055 70.0859 20.7441C70.5254 20.373 70.9697 19.9434 71.4189 19.4551C71.8779 18.9668 72.3271 18.4443 72.7666 17.8877C73.2061 17.3311 73.6309 16.7598 74.041 16.1738C74.4512 15.5781 74.832 14.9922 75.1836 14.416C75.4961 13.8984 75.8086 13.3809 76.1211 12.8633C76.4336 12.3359 76.7461 11.8232 77.0586 11.3252L77.7471 11.6768C77.7373 11.6963 77.6445 11.8818 77.4688 12.2334C77.3027 12.5752 77.0781 13.0439 76.7949 13.6396C76.5117 14.2256 76.1797 14.9092 75.7988 15.6904C75.4277 16.4619 75.0322 17.2871 74.6123 18.166C74.1924 19.0352 73.7627 19.9287 73.3232 20.8467C72.8936 21.7646 72.4736 22.6582 72.0635 23.5273C73.4404 22.7656 74.6855 21.8623 75.7988 20.8174C76.9219 19.7725 77.8838 18.6787 78.6846 17.5361L79.2266 17.9463C78.377 19.2451 77.3223 20.4463 76.0625 21.5498C74.8027 22.6436 73.2842 23.6934 71.5068 24.6992C70.6963 26.4375 69.9004 28.0244 69.1191 29.46C68.3477 30.8955 67.5713 32.126 66.79 33.1514C66.0186 34.1768 65.2471 34.9678 64.4756 35.5244C63.6943 36.0908 62.9033 36.374 62.1025 36.374C61.5752 36.374 61.1357 36.1982 60.7842 35.8467C60.4326 35.4951 60.2568 34.9922 60.2568 34.3379C60.2568 33.791 60.3789 33.2295 60.623 32.6533C60.8672 32.0771 61.2041 31.4961 61.6338 30.9102C62.0635 30.334 62.5762 29.7578 63.1719 29.1816C63.7578 28.6152 64.4023 28.0684 65.1055 27.541C65.7988 27.0137 66.5264 26.5107 67.2881 26.0322C68.0596 25.5537 68.8408 25.1143 69.6318 24.7139C69.8369 24.2842 70.0566 23.8301 70.291 23.3516C70.5254 22.8828 70.7549 22.4287 70.9795 21.9893C71.2041 21.54 71.4189 21.1201 71.624 20.7295C71.8389 20.3291 72.0244 19.9971 72.1807 19.7334ZM68.958 26.1348C67.835 26.8281 66.79 27.5654 65.8232 28.3467C64.8662 29.1377 64.0361 29.9141 63.333 30.6758C62.6201 31.4473 62.0635 32.1699 61.6631 32.8438C61.2627 33.5176 61.0625 34.0889 61.0625 34.5576C61.0625 34.8701 61.1553 35.1191 61.3408 35.3047C61.5166 35.4902 61.7461 35.583 62.0293 35.583C62.4102 35.583 62.8057 35.4512 63.2158 35.1875C63.6162 34.9336 64.0215 34.582 64.4316 34.1328C64.832 33.6836 65.2324 33.1514 65.6328 32.5361C66.0332 31.9307 66.4238 31.2764 66.8047 30.5732C67.1953 29.8799 67.5713 29.1523 67.9326 28.3906C68.2939 27.6387 68.6357 26.8867 68.958 26.1348ZM90.3447 13.2588C90.2178 13.5127 90.0371 13.8447 89.8027 14.2549C89.5781 14.665 89.334 15.1191 89.0703 15.6172C88.8066 16.1055 88.5381 16.6182 88.2646 17.1553C88.001 17.6924 87.7568 18.2197 87.5322 18.7373C87.3174 19.2451 87.1367 19.7285 86.9902 20.1875C86.8535 20.6367 86.7852 21.0176 86.7852 21.3301C86.7852 21.6426 86.8438 21.8477 86.9609 21.9453C87.0879 22.0332 87.249 22.0771 87.4443 22.0771C87.7275 22.0771 88.0156 21.9941 88.3086 21.8281C88.6113 21.6621 88.9043 21.4473 89.1875 21.1836C89.4805 20.9199 89.7637 20.6221 90.0371 20.29C90.3105 19.958 90.5645 19.626 90.7988 19.2939C91.043 18.9521 91.2627 18.6299 91.458 18.3271C91.6533 18.0146 91.8193 17.751 91.9561 17.5361L92.4834 17.9463C92.3174 18.2588 92.1221 18.5957 91.8975 18.957C91.6729 19.3184 91.4238 19.6846 91.1504 20.0557C90.8867 20.417 90.5986 20.7686 90.2861 21.1104C89.9736 21.4521 89.6416 21.7549 89.29 22.0186C88.9482 22.2822 88.5869 22.4922 88.2061 22.6484C87.8252 22.8047 87.4346 22.8828 87.0342 22.8828C86.4482 22.8828 86.0186 22.707 85.7451 22.3555C85.4717 22.0039 85.335 21.5498 85.335 20.9932C85.335 20.9541 85.335 20.8711 85.335 20.7441C85.3447 20.6074 85.3594 20.5 85.3789 20.4219C84.8906 21.0371 84.4219 21.5449 83.9727 21.9453C83.5332 22.3457 83.1035 22.6631 82.6836 22.8975C82.2734 23.1318 81.873 23.293 81.4824 23.3809C81.1016 23.4785 80.7354 23.5273 80.3838 23.5273C80.0127 23.5273 79.6611 23.4639 79.3291 23.3369C79.0068 23.2197 78.7236 23.0439 78.4795 22.8096C78.2256 22.5752 78.0303 22.2871 77.8936 21.9453C77.7471 21.6035 77.6738 21.208 77.6738 20.7588C77.6738 20.2021 77.8008 19.5674 78.0547 18.8545C78.2988 18.1318 78.7383 17.3555 79.373 16.5254C79.9102 15.8125 80.4668 15.2119 81.043 14.7236C81.6289 14.2354 82.2002 13.8447 82.7568 13.5518C83.3232 13.249 83.8604 13.0342 84.3682 12.9072C84.876 12.7803 85.3301 12.7168 85.7305 12.7168C86.6289 12.7168 87.3076 12.8682 87.7666 13.1709C88.2256 13.4639 88.5039 13.918 88.6016 14.5332C88.7969 14.2891 89.002 14.0449 89.2168 13.8008C89.4316 13.5566 89.6514 13.3076 89.876 13.0537L90.3447 13.2588ZM85.8477 18.8252C85.9746 18.6201 86.1309 18.3613 86.3164 18.0488C86.502 17.7266 86.6973 17.3994 86.9023 17.0674C87.1074 16.7256 87.3076 16.3984 87.5029 16.0859C87.6982 15.7734 87.8691 15.5098 88.0156 15.2949C88.0156 15.207 88.001 15.0654 87.9717 14.8701C87.9521 14.6748 87.8887 14.4795 87.7812 14.2842C87.6738 14.0791 87.5029 13.9033 87.2686 13.7568C87.0342 13.6104 86.707 13.5371 86.2871 13.5371C85.9844 13.5371 85.6426 13.5859 85.2617 13.6836C84.8906 13.7715 84.4902 13.9277 84.0605 14.1523C83.6406 14.3672 83.2061 14.6553 82.7568 15.0166C82.3076 15.3779 81.8584 15.8271 81.4092 16.3643C80.7354 17.1748 80.2129 17.9902 79.8418 18.8105C79.4805 19.6211 79.2998 20.3535 79.2998 21.0078C79.2998 21.5645 79.4268 21.9941 79.6807 22.2969C79.9346 22.5996 80.2959 22.751 80.7646 22.751C81.3018 22.751 81.8047 22.6338 82.2734 22.3994C82.7422 22.1553 83.1816 21.8428 83.5918 21.4619C84.002 21.0811 84.3926 20.6611 84.7637 20.2021C85.1348 19.7334 85.4961 19.2744 85.8477 18.8252ZM125.354 3.19531C124.778 3.41016 124.246 3.58594 123.758 3.72266C123.279 3.85937 122.825 3.9668 122.396 4.04492C121.976 4.12305 121.565 4.17676 121.165 4.20605C120.774 4.23535 120.374 4.25 119.964 4.25C119.3 4.25 118.611 4.20605 117.898 4.11816C117.186 4.02051 116.497 3.97168 115.833 3.97168C114.944 3.97168 114.09 4.08887 113.27 4.32324C112.459 4.54785 111.741 4.88965 111.116 5.34863C110.491 5.79785 109.993 6.36426 109.622 7.04785C109.251 7.73145 109.065 8.53223 109.065 9.4502C109.065 10.0068 109.153 10.5146 109.329 10.9736C109.505 11.4229 109.759 11.8086 110.091 12.1309C110.423 12.4531 110.828 12.7021 111.307 12.8779C111.785 13.0537 112.322 13.1416 112.918 13.1416C113.592 13.1416 114.178 13.0586 114.676 12.8926C115.174 12.7266 115.584 12.541 115.906 12.3359C116.238 12.1309 116.487 11.9404 116.653 11.7646C116.819 11.5889 116.912 11.4912 116.932 11.4717L117.547 11.9258C117.518 11.9648 117.381 12.1016 117.137 12.3359C116.893 12.5703 116.546 12.8193 116.097 13.083C115.657 13.3467 115.11 13.5859 114.456 13.8008C113.812 14.0156 113.069 14.123 112.229 14.123C111.683 14.123 111.121 14.0498 110.545 13.9033C109.979 13.7568 109.461 13.5078 108.992 13.1562C108.523 12.8047 108.138 12.3408 107.835 11.7646C107.532 11.1885 107.381 10.4756 107.381 9.62598C107.381 8.93262 107.488 8.29297 107.703 7.70703C107.918 7.12109 108.211 6.58887 108.582 6.11035C108.963 5.63184 109.412 5.21191 109.93 4.85059C110.457 4.47949 111.023 4.17188 111.629 3.92773C112.244 3.68359 112.894 3.49805 113.577 3.37109C114.261 3.24414 114.954 3.18066 115.657 3.18066C115.96 3.18066 116.312 3.2002 116.712 3.23926C117.122 3.26855 117.537 3.30273 117.957 3.3418C118.387 3.37109 118.807 3.40527 119.217 3.44434C119.627 3.47363 119.993 3.48828 120.315 3.48828C120.677 3.48828 121.062 3.46875 121.473 3.42969C121.893 3.38086 122.352 3.29785 122.85 3.18066C123.357 3.06348 123.914 2.90234 124.52 2.69727C125.125 2.48242 125.804 2.20898 126.556 1.87695L126.922 2.53613C126.922 2.53613 126.819 2.63867 126.614 2.84375C126.409 3.04883 126.126 3.41016 125.765 3.92773C125.403 4.44531 124.979 5.15332 124.49 6.05176C124.002 6.9502 123.465 8.09766 122.879 9.49414C122.293 10.9004 121.697 12.2969 121.092 13.6836C120.496 15.0605 119.852 16.3691 119.158 17.6094C118.465 18.8496 117.703 20.002 116.873 21.0664C116.053 22.1211 115.12 23.0342 114.075 23.8057C113.04 24.5771 111.878 25.1777 110.589 25.6074C109.31 26.0469 107.859 26.2666 106.238 26.2666C105.271 26.2666 104.378 26.1543 103.558 25.9297C102.747 25.7051 102.049 25.3779 101.463 24.9482C100.877 24.5283 100.418 24.0156 100.086 23.4102C99.7539 22.8047 99.5879 22.1211 99.5879 21.3594C99.5879 20.4121 99.7881 19.5869 100.188 18.8838C100.589 18.1709 101.121 17.5752 101.785 17.0967C102.449 16.6182 103.216 16.2617 104.085 16.0273C104.964 15.7832 105.872 15.6611 106.81 15.6611C107.708 15.6611 108.611 15.749 109.52 15.9248C110.428 16.1006 111.302 16.3496 112.142 16.6719L111.863 17.3896C111.238 17.1553 110.55 16.9795 109.798 16.8623C109.046 16.7354 108.343 16.6719 107.688 16.6719C106.683 16.6719 105.784 16.7793 104.993 16.9941C104.202 17.209 103.528 17.5215 102.972 17.9316C102.425 18.332 102.005 18.8203 101.712 19.3965C101.429 19.9727 101.287 20.6172 101.287 21.3301C101.287 22.043 101.453 22.6533 101.785 23.1611C102.127 23.6787 102.566 24.0986 103.104 24.4209C103.641 24.7529 104.236 24.9971 104.891 25.1533C105.555 25.3096 106.204 25.3877 106.839 25.3877C108.021 25.3877 109.085 25.2266 110.032 24.9043C110.989 24.5918 111.854 24.1621 112.625 23.6152C113.396 23.0684 114.085 22.4287 114.69 21.6963C115.306 20.9639 115.867 20.1826 116.375 19.3525C116.893 18.5127 117.366 17.6484 117.796 16.7598C118.226 15.8711 118.641 14.9971 119.041 14.1377C119.734 12.5361 120.442 11.0273 121.165 9.61133C121.468 9.00586 121.79 8.39062 122.132 7.76562C122.483 7.14062 122.84 6.54492 123.201 5.97852C123.562 5.40234 123.924 4.875 124.285 4.39648C124.656 3.9082 125.013 3.50781 125.354 3.19531ZM140.252 6.75488C140.252 6.74512 140.291 6.66211 140.369 6.50586C140.447 6.34961 140.53 6.14941 140.618 5.90527C140.716 5.65137 140.799 5.36816 140.867 5.05566C140.945 4.74316 140.984 4.42578 140.984 4.10352C140.984 3.77148 140.921 3.46875 140.794 3.19531C140.677 2.91211 140.511 2.67285 140.296 2.47754C140.091 2.27246 139.842 2.11621 139.549 2.00879C139.256 1.8916 138.943 1.83301 138.611 1.83301C138.172 1.83301 137.742 1.9502 137.322 2.18457C136.912 2.41895 136.478 2.80469 136.019 3.3418C135.569 3.86914 135.081 4.5625 134.554 5.42188C134.026 6.27148 133.426 7.31641 132.752 8.55664C132.381 9.25 132.005 9.86523 131.624 10.4023C131.253 10.9297 130.882 11.3936 130.511 11.7939C130.14 12.1943 129.773 12.541 129.412 12.834C129.051 13.1172 128.699 13.3564 128.357 13.5518C128.68 13.9326 128.948 14.4062 129.163 14.9727C129.388 15.5293 129.5 16.2178 129.5 17.0381C129.5 17.4775 129.441 17.9609 129.324 18.4883C129.217 19.0156 129.095 19.5479 128.958 20.085C128.831 20.6221 128.714 21.1445 128.606 21.6523C128.499 22.1602 128.445 22.6094 128.445 23C128.445 23.5273 128.523 23.9521 128.68 24.2744C128.836 24.5967 129.036 24.8457 129.28 25.0215C129.524 25.207 129.788 25.3291 130.071 25.3877C130.364 25.4463 130.638 25.4756 130.892 25.4756C131.312 25.4756 131.712 25.4072 132.093 25.2705C132.483 25.1436 132.83 24.9971 133.133 24.8311C133.484 24.6455 133.812 24.4258 134.114 24.1719L134.598 24.7725C134.568 24.792 134.437 24.8848 134.202 25.0508C133.978 25.2266 133.675 25.4121 133.294 25.6074C132.923 25.8027 132.498 25.9785 132.02 26.1348C131.541 26.291 131.043 26.3691 130.525 26.3691C129.988 26.3691 129.485 26.2764 129.017 26.0908C128.558 25.9053 128.157 25.6416 127.815 25.2998C127.483 24.958 127.22 24.5527 127.024 24.084C126.829 23.6152 126.731 23.0928 126.731 22.5166C126.731 21.9697 126.8 21.4277 126.937 20.8906C127.073 20.3535 127.225 19.8262 127.391 19.3086C127.557 18.791 127.708 18.2881 127.845 17.7998C127.981 17.3115 128.05 16.8428 128.05 16.3936C128.05 16.0029 128.001 15.6025 127.903 15.1924C127.815 14.7822 127.64 14.3916 127.376 14.0205C126.927 14.1572 126.497 14.2695 126.087 14.3574C125.677 14.4453 125.208 14.4893 124.681 14.4893C124.241 14.4893 123.895 14.4404 123.641 14.3428C123.387 14.2354 123.196 14.1182 123.069 13.9912C122.952 13.8545 122.874 13.7227 122.835 13.5957C122.806 13.459 122.791 13.3564 122.791 13.2881C122.791 12.8779 122.972 12.5312 123.333 12.248C123.704 11.9551 124.207 11.8086 124.842 11.8086C125.184 11.8086 125.589 11.8867 126.058 12.043C126.526 12.1895 127.015 12.4385 127.522 12.79C128.06 12.4092 128.553 11.9307 129.002 11.3545C129.461 10.7783 129.896 10.1484 130.306 9.46484C130.716 8.77148 131.116 8.04883 131.507 7.29688C131.897 6.53516 132.298 5.77832 132.708 5.02637C133.44 3.68848 134.271 2.66797 135.198 1.96484C136.126 1.25195 137.107 0.895508 138.143 0.895508C138.592 0.895508 139.031 0.96875 139.461 1.11523C139.9 1.25195 140.291 1.45703 140.633 1.73047C140.975 2.00391 141.248 2.34082 141.453 2.74121C141.668 3.13184 141.775 3.58105 141.775 4.08887C141.775 4.45996 141.731 4.82129 141.644 5.17285C141.565 5.52441 141.473 5.8418 141.365 6.125C141.268 6.39844 141.17 6.62793 141.072 6.81348C140.984 6.98926 140.936 7.0918 140.926 7.12109L140.252 6.75488ZM126.702 13.2734C126.448 13.0781 126.15 12.9121 125.809 12.7754C125.477 12.6387 125.145 12.5703 124.812 12.5703C124.432 12.5703 124.134 12.6387 123.919 12.7754C123.714 12.9023 123.611 13.0537 123.611 13.2295C123.611 13.3369 123.68 13.4443 123.816 13.5518C123.963 13.6592 124.246 13.7129 124.666 13.7129C124.969 13.7129 125.301 13.6787 125.662 13.6104C126.033 13.5322 126.38 13.4199 126.702 13.2734ZM142.566 19.0156C142.605 19.0254 142.645 19.0303 142.684 19.0303C142.723 19.0303 142.767 19.0303 142.815 19.0303C143.089 19.0303 143.338 19.0059 143.562 18.957C143.787 18.8984 143.992 18.8105 144.178 18.6934C144.373 18.5762 144.559 18.4248 144.734 18.2393C144.91 18.0439 145.081 17.8096 145.247 17.5361L145.774 17.9463C145.306 18.6104 144.822 19.0742 144.324 19.3379C143.826 19.6016 143.299 19.7334 142.742 19.7334C142.537 19.7334 142.356 19.7139 142.2 19.6748C141.78 20.3779 141.331 20.9785 140.853 21.4766C140.374 21.9648 139.886 22.3652 139.388 22.6777C138.89 22.9902 138.396 23.2148 137.908 23.3516C137.42 23.498 136.966 23.5713 136.546 23.5713C136.116 23.5713 135.716 23.4932 135.345 23.3369C134.983 23.1904 134.671 22.9756 134.407 22.6924C134.144 22.4092 133.938 22.0723 133.792 21.6816C133.646 21.291 133.572 20.8516 133.572 20.3633C133.572 19.875 133.65 19.377 133.807 18.8691C133.963 18.3613 134.173 17.8584 134.437 17.3604C134.71 16.8623 135.027 16.3838 135.389 15.9248C135.75 15.4561 136.141 15.0215 136.561 14.6211C136.98 14.2207 137.415 13.8594 137.864 13.5371C138.313 13.2148 138.763 12.9512 139.212 12.7461L139.681 13.3613C139.163 13.7324 138.636 14.2012 138.099 14.7676C137.571 15.334 137.088 15.9541 136.648 16.6279C136.219 17.3018 135.862 18.0049 135.579 18.7373C135.306 19.46 135.169 20.1631 135.169 20.8467C135.169 21.4619 135.306 21.9404 135.579 22.2822C135.853 22.6143 136.268 22.7803 136.824 22.7803C137.254 22.7803 137.679 22.6924 138.099 22.5166C138.519 22.3408 138.929 22.1016 139.329 21.7988C139.729 21.4961 140.115 21.1396 140.486 20.7295C140.857 20.3096 141.209 19.8652 141.541 19.3965C141.258 19.2305 141.009 19.0107 140.794 18.7373C140.579 18.4541 140.398 18.1367 140.252 17.7852C140.105 17.4238 139.993 17.0381 139.915 16.6279C139.847 16.2178 139.812 15.7979 139.812 15.3682C139.812 14.9385 139.866 14.5332 139.974 14.1523C140.081 13.7715 140.228 13.4395 140.413 13.1562C140.608 12.8633 140.833 12.6338 141.087 12.4678C141.341 12.3018 141.619 12.2188 141.922 12.2188C142.195 12.2188 142.439 12.292 142.654 12.4385C142.869 12.5752 143.05 12.7705 143.196 13.0244C143.343 13.2686 143.455 13.5615 143.533 13.9033C143.611 14.2451 143.65 14.6113 143.65 15.002C143.65 15.2949 143.626 15.6172 143.577 15.9688C143.528 16.3203 143.455 16.6768 143.357 17.0381C143.27 17.3896 143.157 17.7412 143.021 18.0928C142.894 18.4346 142.742 18.7422 142.566 19.0156ZM140.574 15.3682C140.574 15.6514 140.599 15.959 140.647 16.291C140.696 16.623 140.774 16.9453 140.882 17.2578C140.989 17.5703 141.126 17.8633 141.292 18.1367C141.458 18.4004 141.663 18.6104 141.907 18.7666C142.083 18.4248 142.229 18.0781 142.347 17.7266C142.474 17.3652 142.576 17.0186 142.654 16.6865C142.742 16.3545 142.801 16.0469 142.83 15.7637C142.869 15.4707 142.889 15.2168 142.889 15.002C142.889 14.709 142.864 14.4404 142.815 14.1963C142.767 13.9521 142.698 13.7422 142.61 13.5664C142.532 13.3809 142.43 13.2393 142.303 13.1416C142.186 13.0342 142.054 12.9805 141.907 12.9805C141.712 12.9805 141.531 13.0488 141.365 13.1855C141.199 13.3125 141.058 13.4883 140.94 13.7129C140.823 13.9277 140.73 14.1816 140.662 14.4746C140.604 14.7578 140.574 15.0557 140.574 15.3682ZM153.011 17.3896C152.854 17.0479 152.732 16.6914 152.645 16.3203C152.566 15.9492 152.527 15.5635 152.527 15.1631C152.527 14.6455 152.571 14.2109 152.659 13.8594C152.757 13.498 152.874 13.21 153.011 12.9951C153.147 12.7705 153.294 12.6094 153.45 12.5117C153.616 12.4141 153.772 12.3652 153.919 12.3652C154.046 12.3652 154.163 12.3945 154.271 12.4531C154.388 12.502 154.49 12.5898 154.578 12.7168C154.666 12.8438 154.734 13.0098 154.783 13.2148C154.842 13.4199 154.871 13.6738 154.871 13.9766C154.871 14.6797 154.729 15.4023 154.446 16.1445C154.173 16.8867 153.802 17.6045 153.333 18.2979C152.874 18.9912 152.342 19.6455 151.736 20.2607C151.131 20.876 150.506 21.418 149.861 21.8867C149.686 22.0137 149.48 22.1504 149.246 22.2969C149.021 22.4336 148.777 22.5654 148.514 22.6924C148.26 22.8096 147.991 22.9121 147.708 23C147.435 23.0781 147.166 23.1172 146.902 23.1172C146.248 23.1172 145.711 22.873 145.291 22.3848C144.881 21.8867 144.676 21.1934 144.676 20.3047C144.676 19.8945 144.734 19.4551 144.852 18.9863C144.969 18.5176 145.13 18.0391 145.335 17.5508C145.54 17.0527 145.779 16.5547 146.053 16.0566C146.326 15.5586 146.614 15.085 146.917 14.6357C147.229 14.1768 147.552 13.7471 147.884 13.3467C148.216 12.9463 148.543 12.5947 148.865 12.292L149.51 12.7168C148.943 13.5762 148.455 14.4111 148.045 15.2217C147.635 16.0225 147.293 16.7793 147.02 17.4922C146.756 18.2051 146.556 18.8594 146.419 19.4551C146.292 20.041 146.229 20.5488 146.229 20.9785C146.229 21.4766 146.292 21.833 146.419 22.0479C146.556 22.2529 146.746 22.3555 146.99 22.3555C147.225 22.3555 147.547 22.2725 147.957 22.1064C148.377 21.9307 148.86 21.6523 149.407 21.2715C150.101 20.7832 150.76 20.207 151.385 19.543C152.02 18.8691 152.562 18.1514 153.011 17.3896ZM153.479 16.6572C153.675 16.2178 153.826 15.7637 153.934 15.2949C154.051 14.8164 154.109 14.3672 154.109 13.9473C154.109 13.6543 154.085 13.4443 154.036 13.3174C153.987 13.1904 153.948 13.1172 153.919 13.0977C153.909 13.0977 153.87 13.127 153.802 13.1855C153.733 13.2441 153.655 13.3516 153.567 13.5078C153.489 13.6543 153.416 13.8643 153.348 14.1377C153.289 14.4014 153.26 14.7432 153.26 15.1631C153.26 15.4072 153.274 15.666 153.304 15.9395C153.343 16.2129 153.401 16.4521 153.479 16.6572ZM167.396 13.2588C167.269 13.5127 167.088 13.8447 166.854 14.2549C166.629 14.665 166.385 15.1191 166.121 15.6172C165.857 16.1055 165.589 16.6182 165.315 17.1553C165.052 17.6924 164.808 18.2197 164.583 18.7373C164.368 19.2451 164.188 19.7285 164.041 20.1875C163.904 20.6367 163.836 21.0176 163.836 21.3301C163.836 21.6426 163.895 21.8477 164.012 21.9453C164.139 22.0332 164.3 22.0771 164.495 22.0771C164.778 22.0771 165.066 21.9941 165.359 21.8281C165.662 21.6621 165.955 21.4473 166.238 21.1836C166.531 20.9199 166.814 20.6221 167.088 20.29C167.361 19.958 167.615 19.626 167.85 19.2939C168.094 18.9521 168.313 18.6299 168.509 18.3271C168.704 18.0146 168.87 17.751 169.007 17.5361L169.534 17.9463C169.368 18.2588 169.173 18.5957 168.948 18.957C168.724 19.3184 168.475 19.6846 168.201 20.0557C167.938 20.417 167.649 20.7686 167.337 21.1104C167.024 21.4521 166.692 21.7549 166.341 22.0186C165.999 22.2822 165.638 22.4922 165.257 22.6484C164.876 22.8047 164.485 22.8828 164.085 22.8828C163.499 22.8828 163.069 22.707 162.796 22.3555C162.522 22.0039 162.386 21.5498 162.386 20.9932C162.386 20.9541 162.386 20.8711 162.386 20.7441C162.396 20.6074 162.41 20.5 162.43 20.4219C161.941 21.0371 161.473 21.5449 161.023 21.9453C160.584 22.3457 160.154 22.6631 159.734 22.8975C159.324 23.1318 158.924 23.293 158.533 23.3809C158.152 23.4785 157.786 23.5273 157.435 23.5273C157.063 23.5273 156.712 23.4639 156.38 23.3369C156.058 23.2197 155.774 23.0439 155.53 22.8096C155.276 22.5752 155.081 22.2871 154.944 21.9453C154.798 21.6035 154.725 21.208 154.725 20.7588C154.725 20.2021 154.852 19.5674 155.105 18.8545C155.35 18.1318 155.789 17.3555 156.424 16.5254C156.961 15.8125 157.518 15.2119 158.094 14.7236C158.68 14.2354 159.251 13.8447 159.808 13.5518C160.374 13.249 160.911 13.0342 161.419 12.9072C161.927 12.7803 162.381 12.7168 162.781 12.7168C163.68 12.7168 164.358 12.8682 164.817 13.1709C165.276 13.4639 165.555 13.918 165.652 14.5332C165.848 14.2891 166.053 14.0449 166.268 13.8008C166.482 13.5566 166.702 13.3076 166.927 13.0537L167.396 13.2588ZM162.898 18.8252C163.025 18.6201 163.182 18.3613 163.367 18.0488C163.553 17.7266 163.748 17.3994 163.953 17.0674C164.158 16.7256 164.358 16.3984 164.554 16.0859C164.749 15.7734 164.92 15.5098 165.066 15.2949C165.066 15.207 165.052 15.0654 165.022 14.8701C165.003 14.6748 164.939 14.4795 164.832 14.2842C164.725 14.0791 164.554 13.9033 164.319 13.7568C164.085 13.6104 163.758 13.5371 163.338 13.5371C163.035 13.5371 162.693 13.5859 162.312 13.6836C161.941 13.7715 161.541 13.9277 161.111 14.1523C160.691 14.3672 160.257 14.6553 159.808 15.0166C159.358 15.3779 158.909 15.8271 158.46 16.3643C157.786 17.1748 157.264 17.9902 156.893 18.8105C156.531 19.6211 156.351 20.3535 156.351 21.0078C156.351 21.5645 156.478 21.9941 156.731 22.2969C156.985 22.5996 157.347 22.751 157.815 22.751C158.353 22.751 158.855 22.6338 159.324 22.3994C159.793 22.1553 160.232 21.8428 160.643 21.4619C161.053 21.0811 161.443 20.6611 161.814 20.2021C162.186 19.7334 162.547 19.2744 162.898 18.8252ZM179.627 1.68652C179.969 1.68652 180.252 1.76953 180.477 1.93555C180.711 2.10156 180.828 2.4043 180.828 2.84375C180.828 3.14648 180.765 3.50781 180.638 3.92773C180.521 4.34766 180.354 4.80664 180.14 5.30469C179.935 5.79297 179.69 6.31055 179.407 6.85742C179.124 7.39453 178.816 7.93164 178.484 8.46875C178.162 9.00586 177.82 9.52832 177.459 10.0361C177.107 10.5439 176.756 11.0127 176.404 11.4424C175.701 12.3115 175.091 13.0439 174.573 13.6396C174.065 14.2354 173.626 14.7432 173.255 15.1631C172.884 15.5732 172.571 15.9102 172.317 16.1738C172.063 16.4277 171.839 16.6475 171.644 16.833C171.448 17.0186 171.268 17.1895 171.102 17.3457C170.936 17.4922 170.765 17.6582 170.589 17.8438C170.511 18.2148 170.472 18.5713 170.472 18.9131C170.481 19.2451 170.486 19.5527 170.486 19.8359C170.486 20.6855 170.623 21.3154 170.896 21.7256C171.17 22.1357 171.556 22.3408 172.054 22.3408C172.386 22.3408 172.718 22.2578 173.05 22.0918C173.392 21.916 173.729 21.6914 174.061 21.418C174.393 21.1445 174.715 20.8369 175.027 20.4951C175.34 20.1436 175.633 19.792 175.906 19.4404C176.189 19.0791 176.443 18.7324 176.668 18.4004C176.893 18.0684 177.088 17.7803 177.254 17.5361L177.796 17.9463C177.767 17.9854 177.669 18.1416 177.503 18.415C177.347 18.6787 177.137 19.001 176.873 19.3818C176.609 19.7627 176.297 20.1729 175.936 20.6123C175.574 21.042 175.184 21.4424 174.764 21.8135C174.344 22.1846 173.899 22.4922 173.431 22.7363C172.972 22.9805 172.503 23.1025 172.024 23.1025C171.624 23.1025 171.238 23.0293 170.867 22.8828C170.506 22.7266 170.184 22.4873 169.9 22.165C169.627 21.833 169.402 21.4131 169.227 20.9053C169.061 20.3975 168.978 19.7871 168.978 19.0742C168.978 18.1855 169.08 17.2578 169.285 16.291C169.5 15.3145 169.788 14.3379 170.149 13.3613C170.511 12.375 170.936 11.4033 171.424 10.4463C171.912 9.48926 172.43 8.58105 172.977 7.72168C173.533 6.85254 174.109 6.05176 174.705 5.31934C175.311 4.57715 175.901 3.9375 176.478 3.40039C177.063 2.86328 177.625 2.44336 178.162 2.14062C178.699 1.83789 179.188 1.68652 179.627 1.68652ZM170.853 16.54C171.683 15.6807 172.483 14.8115 173.255 13.9326C174.036 13.0439 174.764 12.1699 175.438 11.3105C176.121 10.4414 176.746 9.60156 177.312 8.79102C177.879 7.9707 178.362 7.19922 178.763 6.47656C179.163 5.75391 179.476 5.09473 179.7 4.49902C179.925 3.90332 180.037 3.39062 180.037 2.96094C180.037 2.88281 179.998 2.78027 179.92 2.65332C179.842 2.5166 179.749 2.44824 179.642 2.44824C179.339 2.44824 178.938 2.64844 178.44 3.04883C177.942 3.44922 177.4 3.99609 176.814 4.68945C176.238 5.37305 175.638 6.17383 175.013 7.0918C174.397 8.00977 173.816 8.99121 173.27 10.0361C172.723 11.0811 172.234 12.1602 171.805 13.2734C171.375 14.3867 171.058 15.4756 170.853 16.54ZM178.367 19.6602C178.348 19.7773 178.333 19.8945 178.323 20.0117C178.313 20.1289 178.309 20.2461 178.309 20.3633C178.309 20.7148 178.357 21.0518 178.455 21.374C178.562 21.6865 178.714 21.9648 178.909 22.209C179.114 22.4434 179.363 22.6289 179.656 22.7656C179.959 22.9023 180.301 22.9707 180.682 22.9707C181.961 22.9707 183.196 22.5361 184.388 21.667C185.579 20.7979 186.766 19.4209 187.947 17.5361L188.445 17.9756C187.801 19.0498 187.146 19.958 186.482 20.7002C185.818 21.4326 185.154 22.0283 184.49 22.4873C183.836 22.9463 183.191 23.2783 182.557 23.4834C181.922 23.6885 181.316 23.791 180.74 23.791C180.32 23.791 179.876 23.7324 179.407 23.6152C178.938 23.498 178.504 23.3027 178.104 23.0293C177.713 22.7559 177.391 22.3896 177.137 21.9307C176.873 21.4717 176.741 20.9004 176.741 20.2168C176.741 19.4844 176.868 18.7812 177.122 18.1074C177.366 17.4238 177.688 16.7891 178.089 16.2031C178.489 15.6172 178.948 15.085 179.466 14.6064C179.983 14.1182 180.506 13.7031 181.033 13.3613C181.57 13.0195 182.093 12.7559 182.601 12.5703C183.108 12.375 183.558 12.2773 183.948 12.2773C184.202 12.2773 184.461 12.3164 184.725 12.3945C184.988 12.4727 185.223 12.5947 185.428 12.7607C185.643 12.9268 185.813 13.1465 185.94 13.4199C186.077 13.6934 186.146 14.0205 186.146 14.4014C186.146 14.9189 186.023 15.4072 185.779 15.8662C185.545 16.3154 185.228 16.7354 184.827 17.126C184.427 17.5068 183.963 17.8535 183.436 18.166C182.908 18.4688 182.356 18.7275 181.78 18.9424C181.204 19.1572 180.623 19.3281 180.037 19.4551C179.451 19.582 178.895 19.6504 178.367 19.6602ZM178.484 19.0303C179.139 18.9619 179.754 18.8252 180.33 18.6201C180.906 18.415 181.434 18.166 181.912 17.873C182.391 17.5703 182.815 17.2432 183.187 16.8916C183.567 16.54 183.885 16.1836 184.139 15.8223C184.393 15.4609 184.588 15.1143 184.725 14.7822C184.861 14.4502 184.93 14.1523 184.93 13.8887C184.93 13.625 184.856 13.415 184.71 13.2588C184.573 13.1025 184.407 13.0244 184.212 13.0244C183.782 13.0244 183.299 13.1807 182.762 13.4932C182.225 13.7959 181.688 14.2207 181.15 14.7676C180.613 15.3047 180.105 15.9395 179.627 16.6719C179.158 17.4043 178.777 18.1904 178.484 19.0303ZM200.179 15.3975C200.179 15.8174 200.105 16.2471 199.959 16.6865C199.812 17.1162 199.627 17.5508 199.402 17.9902C199.178 18.4199 198.938 18.8447 198.685 19.2646C198.431 19.6846 198.191 20.0898 197.967 20.4805C197.742 20.8711 197.557 21.2471 197.41 21.6084C197.264 21.96 197.19 22.2822 197.19 22.5752C197.19 22.7998 197.239 22.9512 197.337 23.0293C197.435 23.1074 197.542 23.1465 197.659 23.1465C198.03 23.1465 198.445 22.9658 198.904 22.6045C199.363 22.2334 199.827 21.7695 200.296 21.2129C200.774 20.6562 201.248 20.0508 201.717 19.3965C202.186 18.7422 202.61 18.1221 202.991 17.5361L203.519 17.9463C203.44 18.0635 203.299 18.2979 203.094 18.6494C202.889 18.9912 202.635 19.3867 202.332 19.8359C202.029 20.2754 201.688 20.7393 201.307 21.2275C200.936 21.7061 200.535 22.1504 200.105 22.5605C199.676 22.9609 199.231 23.293 198.772 23.5566C198.323 23.8203 197.869 23.9521 197.41 23.9521C197.146 23.9521 196.907 23.9082 196.692 23.8203C196.478 23.7324 196.292 23.6104 196.136 23.4541C195.989 23.2979 195.872 23.1172 195.784 22.9121C195.696 22.6973 195.652 22.4727 195.652 22.2383C195.652 21.8574 195.735 21.4473 195.901 21.0078C196.077 20.5586 196.292 20.0996 196.546 19.6309C196.8 19.1621 197.078 18.6934 197.381 18.2246C197.684 17.7461 197.962 17.292 198.216 16.8623C198.47 16.4326 198.68 16.0371 198.846 15.6758C199.021 15.3047 199.109 14.9873 199.109 14.7236C199.109 14.4209 199.026 14.167 198.86 13.9619C198.704 13.7568 198.479 13.6543 198.187 13.6543C197.874 13.6543 197.513 13.7861 197.103 14.0498C196.692 14.3037 196.233 14.6797 195.726 15.1777C195.218 15.6758 194.661 16.291 194.056 17.0234C193.46 17.7461 192.811 18.5713 192.107 19.499C191.707 20.0361 191.316 20.5537 190.936 21.0518C190.77 21.2666 190.604 21.4863 190.438 21.7109C190.271 21.9355 190.105 22.1602 189.939 22.3848C189.773 22.5996 189.617 22.8047 189.471 23C189.324 23.2051 189.192 23.3809 189.075 23.5273L187.786 23L189.5 20.6416C189.744 20.3096 189.993 19.9531 190.247 19.5723C190.501 19.1914 190.75 18.8008 190.994 18.4004C191.248 17.9902 191.487 17.5801 191.712 17.1699C191.937 16.7598 192.146 16.3594 192.342 15.9688C192.625 15.3828 192.82 14.8994 192.928 14.5186C193.035 14.1279 193.089 13.8154 193.089 13.5811C193.089 13.3174 193.04 13.1465 192.942 13.0684C192.845 12.9805 192.708 12.9365 192.532 12.9365C192.347 12.9365 192.132 13.0342 191.888 13.2295C191.653 13.415 191.409 13.6592 191.155 13.9619C190.901 14.2549 190.643 14.5918 190.379 14.9727C190.125 15.3438 189.881 15.7148 189.646 16.0859C189.412 16.457 189.192 16.8086 188.987 17.1406C188.782 17.4727 188.611 17.7412 188.475 17.9463L187.947 17.5361C188.445 16.7549 188.895 16.042 189.295 15.3975C189.705 14.7432 190.096 14.1816 190.467 13.7129C190.848 13.2441 191.214 12.8828 191.565 12.6289C191.927 12.3652 192.308 12.2334 192.708 12.2334C192.923 12.2334 193.128 12.2773 193.323 12.3652C193.528 12.4531 193.704 12.585 193.851 12.7607C194.007 12.9268 194.129 13.1318 194.217 13.376C194.305 13.6201 194.349 13.9033 194.349 14.2256C194.349 14.4795 194.319 14.7432 194.261 15.0166C194.69 14.5967 195.091 14.25 195.462 13.9766C195.833 13.7031 196.175 13.4883 196.487 13.332C196.8 13.166 197.088 13.0488 197.352 12.9805C197.615 12.9121 197.854 12.8779 198.069 12.8779C198.255 12.8779 198.47 12.9121 198.714 12.9805C198.958 13.0488 199.188 13.1758 199.402 13.3613C199.617 13.5469 199.798 13.8057 199.944 14.1377C200.101 14.46 200.179 14.8799 200.179 15.3975ZM204.764 17.8584C205.271 17.1553 205.809 16.4814 206.375 15.8369C206.951 15.1826 207.532 14.6064 208.118 14.1084C208.704 13.6006 209.295 13.1953 209.891 12.8926C210.486 12.5898 211.067 12.4385 211.634 12.4385C211.985 12.4385 212.273 12.4922 212.498 12.5996C212.723 12.707 212.898 12.8438 213.025 13.0098C213.162 13.1758 213.255 13.3662 213.304 13.5811C213.362 13.7861 213.392 13.9912 213.392 14.1963C213.392 14.4893 213.333 14.8066 213.216 15.1484C213.108 15.4902 212.938 15.8369 212.703 16.1885C212.479 16.5303 212.19 16.8623 211.839 17.1846C211.487 17.4971 211.067 17.7803 210.579 18.0342C210.687 18.2881 210.74 18.5957 210.74 18.957C210.74 19.1816 210.711 19.4111 210.652 19.6455C210.594 19.8701 210.53 20.0947 210.462 20.3193C210.394 20.5439 210.33 20.7734 210.271 21.0078C210.213 21.2324 210.184 21.4619 210.184 21.6963C210.184 21.8135 210.188 21.9258 210.198 22.0332C210.218 22.1406 210.247 22.2383 210.286 22.3262C210.335 22.4141 210.403 22.4873 210.491 22.5459C210.589 22.5947 210.721 22.6191 210.887 22.6191C211.082 22.6191 211.307 22.541 211.561 22.3848C211.814 22.2188 212.083 22.0039 212.366 21.7402C212.649 21.4766 212.938 21.1738 213.23 20.832C213.533 20.4805 213.826 20.1143 214.109 19.7334C214.393 19.3525 214.666 18.9766 214.93 18.6055C215.193 18.2246 215.433 17.8682 215.647 17.5361L216.189 17.9463C215.691 18.6885 215.203 19.3965 214.725 20.0703C214.256 20.7441 213.782 21.335 213.304 21.8428C212.835 22.3506 212.356 22.7559 211.868 23.0586C211.38 23.3613 210.877 23.5127 210.359 23.5127C210.154 23.5127 209.939 23.4834 209.715 23.4248C209.5 23.3662 209.3 23.2686 209.114 23.1318C208.938 23.0049 208.792 22.834 208.675 22.6191C208.558 22.4043 208.499 22.1406 208.499 21.8281C208.499 21.457 208.592 21.0225 208.777 20.5244C208.943 20.0557 209.065 19.665 209.144 19.3525C209.222 19.0303 209.266 18.7617 209.275 18.5469C209.07 18.5957 208.851 18.6396 208.616 18.6787C208.392 18.7178 208.177 18.7373 207.972 18.7373C207.864 18.7373 207.747 18.7275 207.62 18.708C207.493 18.6787 207.376 18.6348 207.269 18.5762C207.161 18.5176 207.068 18.4443 206.99 18.3564C206.922 18.2588 206.888 18.1367 206.888 17.9902C206.888 17.8438 206.932 17.707 207.02 17.5801C207.117 17.4434 207.244 17.3262 207.4 17.2285C207.566 17.1211 207.762 17.0381 207.986 16.9795C208.211 16.9209 208.46 16.8916 208.733 16.8916C209.241 16.8916 209.676 17.0283 210.037 17.3018C210.389 17.0283 210.677 16.7305 210.901 16.4082C211.136 16.0859 211.316 15.7734 211.443 15.4707C211.57 15.168 211.658 14.8994 211.707 14.665C211.756 14.4209 211.78 14.2402 211.78 14.123C211.78 13.8008 211.722 13.5811 211.604 13.4639C211.487 13.3369 211.346 13.2734 211.18 13.2734C210.867 13.2734 210.516 13.376 210.125 13.5811C209.744 13.7861 209.344 14.0645 208.924 14.416C208.514 14.7676 208.089 15.1729 207.649 15.6318C207.22 16.0908 206.795 16.5742 206.375 17.082C205.965 17.5898 205.564 18.1025 205.174 18.6201C204.793 19.1377 204.441 19.626 204.119 20.085C203.826 20.5732 203.562 21.0273 203.328 21.4473C203.104 21.8672 202.913 22.2285 202.757 22.5312C202.601 22.834 202.479 23.0635 202.391 23.2197C202.303 23.376 202.254 23.4297 202.244 23.3809L200.794 23C201.946 20.373 203.113 17.7461 204.295 15.1191C205.477 12.4922 206.722 9.83594 208.03 7.15039C208.226 6.75977 208.445 6.33496 208.689 5.87598C208.943 5.40723 209.212 4.94336 209.495 4.48438C209.788 4.01562 210.096 3.56152 210.418 3.12207C210.75 2.68262 211.087 2.29688 211.429 1.96484C211.78 1.62305 212.137 1.35449 212.498 1.15918C212.859 0.954102 213.221 0.851562 213.582 0.851562C213.963 0.851562 214.271 0.958984 214.505 1.17383C214.749 1.38867 214.871 1.73047 214.871 2.19922C214.871 2.84375 214.695 3.62988 214.344 4.55762C214.002 5.47559 213.489 6.45215 212.806 7.4873C212.122 8.52246 211.268 9.57227 210.242 10.6367C209.227 11.6914 208.04 12.6729 206.683 13.5811L204.764 17.8584ZM207.327 12.1748C208.509 11.2568 209.524 10.3145 210.374 9.34766C211.233 8.37109 211.937 7.43359 212.483 6.53516C213.04 5.63672 213.445 4.80664 213.699 4.04492C213.963 3.27344 214.095 2.62891 214.095 2.11133C214.095 1.96484 214.056 1.84766 213.978 1.75977C213.899 1.67188 213.777 1.62793 213.611 1.62793C213.25 1.62793 212.879 1.80859 212.498 2.16992C212.117 2.52148 211.683 3.10742 211.194 3.92773C210.716 4.74805 210.164 5.83203 209.539 7.17969C208.914 8.52734 208.177 10.1924 207.327 12.1748ZM209.202 17.8877C209.153 17.7803 209.07 17.6875 208.953 17.6094C208.846 17.5215 208.724 17.4775 208.587 17.4775C208.304 17.4775 208.055 17.5361 207.84 17.6533C207.625 17.7705 207.518 17.8828 207.518 17.9902C207.518 18.0684 207.562 18.1221 207.649 18.1514C207.747 18.1709 207.835 18.1807 207.913 18.1807C208.167 18.1807 208.401 18.1514 208.616 18.0928C208.831 18.0342 209.026 17.9658 209.202 17.8877ZM223.924 19.0156C223.963 19.0254 224.002 19.0303 224.041 19.0303C224.08 19.0303 224.124 19.0303 224.173 19.0303C224.446 19.0303 224.695 19.0059 224.92 18.957C225.145 18.8984 225.35 18.8105 225.535 18.6934C225.73 18.5762 225.916 18.4248 226.092 18.2393C226.268 18.0439 226.438 17.8096 226.604 17.5361L227.132 17.9463C226.663 18.6104 226.18 19.0742 225.682 19.3379C225.184 19.6016 224.656 19.7334 224.1 19.7334C223.895 19.7334 223.714 19.7139 223.558 19.6748C223.138 20.3779 222.688 20.9785 222.21 21.4766C221.731 21.9648 221.243 22.3652 220.745 22.6777C220.247 22.9902 219.754 23.2148 219.266 23.3516C218.777 23.498 218.323 23.5713 217.903 23.5713C217.474 23.5713 217.073 23.4932 216.702 23.3369C216.341 23.1904 216.028 22.9756 215.765 22.6924C215.501 22.4092 215.296 22.0723 215.149 21.6816C215.003 21.291 214.93 20.8516 214.93 20.3633C214.93 19.875 215.008 19.377 215.164 18.8691C215.32 18.3613 215.53 17.8584 215.794 17.3604C216.067 16.8623 216.385 16.3838 216.746 15.9248C217.107 15.4561 217.498 15.0215 217.918 14.6211C218.338 14.2207 218.772 13.8594 219.222 13.5371C219.671 13.2148 220.12 12.9512 220.569 12.7461L221.038 13.3613C220.521 13.7324 219.993 14.2012 219.456 14.7676C218.929 15.334 218.445 15.9541 218.006 16.6279C217.576 17.3018 217.22 18.0049 216.937 18.7373C216.663 19.46 216.526 20.1631 216.526 20.8467C216.526 21.4619 216.663 21.9404 216.937 22.2822C217.21 22.6143 217.625 22.7803 218.182 22.7803C218.611 22.7803 219.036 22.6924 219.456 22.5166C219.876 22.3408 220.286 22.1016 220.687 21.7988C221.087 21.4961 221.473 21.1396 221.844 20.7295C222.215 20.3096 222.566 19.8652 222.898 19.3965C222.615 19.2305 222.366 19.0107 222.151 18.7373C221.937 18.4541 221.756 18.1367 221.609 17.7852C221.463 17.4238 221.351 17.0381 221.272 16.6279C221.204 16.2178 221.17 15.7979 221.17 15.3682C221.17 14.9385 221.224 14.5332 221.331 14.1523C221.438 13.7715 221.585 13.4395 221.771 13.1562C221.966 12.8633 222.19 12.6338 222.444 12.4678C222.698 12.3018 222.977 12.2188 223.279 12.2188C223.553 12.2188 223.797 12.292 224.012 12.4385C224.227 12.5752 224.407 12.7705 224.554 13.0244C224.7 13.2686 224.812 13.5615 224.891 13.9033C224.969 14.2451 225.008 14.6113 225.008 15.002C225.008 15.2949 224.983 15.6172 224.935 15.9688C224.886 16.3203 224.812 16.6768 224.715 17.0381C224.627 17.3896 224.515 17.7412 224.378 18.0928C224.251 18.4346 224.1 18.7422 223.924 19.0156ZM221.932 15.3682C221.932 15.6514 221.956 15.959 222.005 16.291C222.054 16.623 222.132 16.9453 222.239 17.2578C222.347 17.5703 222.483 17.8633 222.649 18.1367C222.815 18.4004 223.021 18.6104 223.265 18.7666C223.44 18.4248 223.587 18.0781 223.704 17.7266C223.831 17.3652 223.934 17.0186 224.012 16.6865C224.1 16.3545 224.158 16.0469 224.188 15.7637C224.227 15.4707 224.246 15.2168 224.246 15.002C224.246 14.709 224.222 14.4404 224.173 14.1963C224.124 13.9521 224.056 13.7422 223.968 13.5664C223.89 13.3809 223.787 13.2393 223.66 13.1416C223.543 13.0342 223.411 12.9805 223.265 12.9805C223.069 12.9805 222.889 13.0488 222.723 13.1855C222.557 13.3125 222.415 13.4883 222.298 13.7129C222.181 13.9277 222.088 14.1816 222.02 14.4746C221.961 14.7578 221.932 15.0557 221.932 15.3682Z" fill="#AD6049"/>
</svg>
