<svg width="199" height="34" viewBox="0 0 199 34" fill="none" xmlns="http://www.w3.org/2000/svg">
<path d="M24.2832 3.9056L22.624 3.3888C21.7536 4.73067 20.8288 7.1424 19.8496 10.624C19.4507 12.0021 19.0064 13.4619 18.5168 15.0032C18.0453 16.5264 17.4923 17.9589 16.8576 19.3008C16.2411 20.6245 15.5248 21.8304 14.7088 22.9184C13.9109 24.0064 12.9136 24.8677 11.7168 25.5024C10.52 26.1371 9.17813 26.4544 7.6912 26.4544C5.0256 26.4544 3.08533 25.5024 1.8704 23.5984C1.19947 22.5285 0.864 21.3771 0.864 20.144C0.864 19.6363 0.9184 19.1195 1.0272 18.5936C1.408 16.8347 2.26933 15.5835 3.6112 14.84C4.3184 14.4411 5.1072 14.2416 5.9776 14.2416C7.84533 14.2416 9.1056 14.9669 9.7584 16.4176C10.0304 17.016 10.1664 17.6325 10.1664 18.2672C10.1664 18.8837 10.0395 19.5093 9.7856 20.144C9.16907 21.6672 8.16267 22.4288 6.7664 22.4288C6.5488 22.4288 6.36747 22.3835 6.2224 22.2928C6.07733 22.184 5.96853 22.0299 5.896 21.8304C6.3856 21.8304 6.848 21.7035 7.2832 21.4496C8.00853 21.0144 8.57067 20.2256 8.9696 19.0832C9.09653 18.7024 9.16 18.3941 9.16 18.1584C9.16 17.9045 9.14187 17.6235 9.1056 17.3152C9.06933 16.9888 8.95147 16.6171 8.752 16.2C8.55253 15.7829 8.208 15.4475 7.7184 15.1936C7.2288 14.9397 6.64853 14.8128 5.9776 14.8128C4.25493 14.8128 2.9856 15.5744 2.1696 17.0976C1.69813 17.968 1.4624 18.7931 1.4624 19.5728C1.4624 20.3525 1.544 21.0507 1.7072 21.6672C2.17867 23.3899 3.16693 24.5776 4.672 25.2304C5.3792 25.5387 6.2768 25.6928 7.3648 25.6928C8.4528 25.6928 9.54987 25.3845 10.656 24.768C11.7803 24.1696 12.7413 23.3536 13.5392 22.32C14.3552 21.2683 15.0896 20.0987 15.7424 18.8112C16.3952 17.5237 16.9845 16.1365 17.5104 14.6496C18.0544 13.1445 18.544 11.7211 18.9792 10.3792C20.1397 6.93387 21.1461 4.5312 21.9984 3.1712C19.2603 2.31893 17.2747 1.8928 16.0416 1.8928C13.7024 1.8928 11.9616 2.78133 10.8192 4.5584C10.1664 5.57387 9.84 6.61653 9.84 7.6864C9.84 7.99467 9.87627 8.312 9.9488 8.6384C10.1483 9.8352 10.6832 10.5515 11.5536 10.7872C11.7168 10.8235 11.88 10.8416 12.0432 10.8416C11.9344 11.2224 11.6352 11.4128 11.1456 11.4128C10.0395 11.4128 9.25973 10.8235 8.8064 9.6448C8.5888 9.08267 8.48 8.45707 8.48 7.768C8.48 7.07893 8.66133 6.30827 9.024 5.456C9.7856 3.62453 11.1275 2.37333 13.0496 1.7024C13.9563 1.39413 14.9899 1.24 16.1504 1.24C17.3291 1.24 19.3963 1.71147 22.352 2.6544C23.2405 1.38507 24.256 0.7504 25.3984 0.7504C25.5435 0.7504 25.6523 0.795734 25.7248 0.886401C25.7973 0.977067 25.8427 1.104 25.8608 1.2672C24.7909 1.2672 23.8389 1.80213 23.0048 2.872C23.8208 3.12587 24.3467 3.29813 24.5824 3.3888C25.344 2.06507 26.0603 1.4032 26.7312 1.4032C27.0395 1.4032 27.2208 1.49387 27.2752 1.6752L27.3024 1.7568C26.7947 1.7568 26.2597 2.42773 25.6976 3.7696L29.5872 5.0208C30.8021 2.736 32.0715 1.5936 33.3952 1.5936C33.5765 1.5936 33.7216 1.63893 33.8304 1.7296C33.9392 1.82027 34.0117 1.95627 34.048 2.1376C32.688 2.1376 31.4368 3.1712 30.2944 5.2384C31.2736 5.49227 31.8811 5.63733 32.1168 5.6736C33.1867 3.552 34.1477 2.4912 35 2.4912C35.3083 2.4912 35.4896 2.58187 35.544 2.7632L35.5712 2.8448C34.9728 2.8448 34.2475 3.8512 33.3952 5.864C33.5221 5.88213 33.6944 5.8912 33.912 5.8912C35.7072 5.8912 36.9675 5.35627 37.6928 4.2864C38.0011 3.86933 38.1552 3.51573 38.1552 3.2256C38.1552 2.4096 37.7925 2.0016 37.0672 2.0016C37.2304 1.74773 37.4933 1.6208 37.856 1.6208C38.5632 1.6208 39.0256 1.9744 39.2432 2.6816C39.2976 2.8992 39.3248 3.10773 39.3248 3.3072C39.3248 3.9056 39.0709 4.49493 38.5632 5.0752C37.6747 6.0544 36.3056 6.544 34.456 6.544C34.0208 6.544 33.5947 6.50773 33.1776 6.4352C32.3797 8.48427 31.6907 10.8507 31.1104 13.5344C30.5483 16.2181 30.2672 18.6117 30.2672 20.7152C30.2672 22.8187 30.6933 23.8704 31.5456 23.8704C31.3643 24.2331 31.1013 24.4144 30.7568 24.4144C29.3424 24.4144 28.6352 22.864 28.6352 19.7632C28.6352 17.9317 28.9253 15.7557 29.5056 13.2352C30.0859 10.6965 30.8747 8.34827 31.872 6.1904C31.4005 6.09973 30.784 5.9456 30.0224 5.728C29.2245 7.28747 28.3813 9.57227 27.4928 12.5824C26.6224 15.5744 25.8427 18.0315 25.1536 19.9536C24.4827 21.8757 23.8027 22.8368 23.1136 22.8368C21.7355 22.8368 21.0464 21.1867 21.0464 17.8864C21.0464 15.8736 21.3365 13.5163 21.9168 10.8144C22.5152 8.11253 23.304 5.8096 24.2832 3.9056ZM22.8688 19.0016C22.8688 20.5248 23.0501 21.2864 23.4128 21.2864C23.7936 21.2864 24.256 20.416 24.8 18.6752C25.3621 16.9344 26.0512 14.704 26.8672 11.984C27.7013 9.264 28.5173 7.1152 29.3152 5.5376C27.6832 5.02987 26.4048 4.62187 25.48 4.3136C24.6821 6.45333 24.0203 9.21867 23.4944 12.6096C23.0773 15.3477 22.8688 17.4784 22.8688 19.0016ZM36.4257 23.0272C34.9931 23.0272 34.2769 21.9483 34.2769 19.7904C34.2769 18.5392 34.6033 17.1701 35.2561 15.6832C36.1627 13.6704 37.3142 12.3557 38.7105 11.7392C39.2001 11.5397 39.6897 11.44 40.1793 11.44C40.687 11.44 41.0859 11.5851 41.3761 11.8752C41.6662 12.1653 41.8113 12.4917 41.8113 12.8544C41.8113 13.0176 41.7206 13.0992 41.5393 13.0992C41.3761 13.0811 41.2945 12.9904 41.2945 12.8272C41.2945 12.664 41.2038 12.5189 41.0225 12.392C40.8593 12.2469 40.6145 12.1744 40.2881 12.1744C39.1457 12.1744 38.1121 13.1989 37.1873 15.248C36.3169 17.152 35.8817 18.9563 35.8817 20.6608C35.8817 21.7125 36.1083 22.2384 36.5617 22.2384C37.0331 22.2384 37.5953 21.8485 38.2481 21.0688C38.919 20.2709 39.5355 19.3461 40.0977 18.2944C41.3126 16.0821 42.0289 14.6587 42.2465 14.024C42.4641 13.3893 42.6998 13.072 42.9537 13.072C43.407 13.072 43.6337 13.4528 43.6337 14.2144C43.6337 14.4501 43.6065 14.7221 43.5521 15.0304C42.9537 17.9317 42.6273 19.6091 42.5729 20.0624C42.5366 20.5157 42.5185 20.8421 42.5185 21.0416C42.5185 21.912 42.727 22.3472 43.1441 22.3472C43.6155 22.3472 44.2774 21.7216 45.1297 20.4704C45.9819 19.2192 46.7163 17.968 47.3329 16.7168L48.2577 14.84H48.9921C48.8833 15.0576 48.7382 15.3568 48.5569 15.7376C48.3937 16.1003 48.0582 16.7621 47.5505 17.7232C47.0427 18.6661 46.5531 19.5003 46.0817 20.2256C45.6283 20.9509 45.1115 21.6128 44.5313 22.2112C43.9691 22.7915 43.4795 23.0816 43.0625 23.0816C41.7206 23.0816 41.0497 22.1024 41.0497 20.144C41.0497 19.4912 41.1222 18.7296 41.2673 17.8592H41.0769C39.2273 21.3045 37.6769 23.0272 36.4257 23.0272ZM47.834 23C47.3263 23 47.0724 22.6101 47.0724 21.8304C47.0724 21.4133 47.5802 18.376 48.5956 12.7184C48.6682 12.3376 48.8314 12.1472 49.0852 12.1472C49.4116 12.1472 49.6564 12.3829 49.8196 12.8544C49.9103 13.1083 49.9556 13.3893 49.9556 13.6976C49.9556 13.9877 49.9194 14.3051 49.8468 14.6496L49.4116 16.88H49.5476C51.1071 13.2533 52.5396 11.44 53.8452 11.44C54.5706 11.44 55.0511 11.7936 55.2868 12.5008C55.3775 12.7728 55.4228 13.0901 55.4228 13.4528C55.4228 13.7973 55.3231 14.1781 55.1236 14.5952C54.7791 15.3024 54.2623 15.656 53.5732 15.656C53.4282 15.656 53.3103 15.6197 53.2196 15.5472C53.1471 15.4747 53.1018 15.3749 53.0836 15.248C53.2287 15.248 53.4191 14.9851 53.6548 14.4592C53.8906 13.9152 54.0266 13.4165 54.0628 12.9632C54.0991 12.5099 53.945 12.2469 53.6004 12.1744C52.9658 12.1744 52.2132 12.9995 51.3428 14.6496C50.4724 16.2997 49.7743 17.8773 49.2484 19.3824C48.7226 20.8875 48.4143 21.8667 48.3236 22.32C48.233 22.7733 48.0698 23 47.834 23ZM59.8909 6.7072C60.3079 6.7072 60.5165 6.98827 60.5165 7.5504C60.5165 8.11253 60.2445 8.56587 59.7005 8.9104C59.4285 9.09173 59.1927 9.1824 58.9933 9.1824C58.7031 9.1824 58.5309 9.09173 58.4765 8.9104L58.4493 8.8288C58.6125 8.8288 58.7303 8.65653 58.8029 8.312C58.8754 7.94933 58.9842 7.59573 59.1293 7.2512C59.2925 6.88853 59.5463 6.7072 59.8909 6.7072ZM58.1501 22.3472C58.6215 22.3472 59.2834 21.7216 60.1357 20.4704C60.9879 19.2192 61.7223 17.968 62.3389 16.7168L63.2637 14.84H63.9981C63.8893 15.0576 63.7442 15.3568 63.5629 15.7376C63.3997 16.1003 63.0642 16.7621 62.5565 17.7232C62.0487 18.6661 61.5591 19.5003 61.0877 20.2256C60.6343 20.9509 60.1175 21.6128 59.5373 22.2112C58.9751 22.7915 58.4855 23.0816 58.0685 23.0816C56.7266 23.0816 56.0557 22.2112 56.0557 20.4704C56.0557 19.1648 56.4274 17.0432 57.1709 14.1056C57.2434 13.7973 57.2978 13.5616 57.3341 13.3984C57.3885 13.2352 57.4429 13.0267 57.4973 12.7728C57.5517 12.5008 57.6061 12.256 57.6605 12.0384C57.7511 11.6576 57.9143 11.4672 58.1501 11.4672C58.4765 11.4672 58.7122 11.7029 58.8573 12.1744C58.9298 12.392 58.9661 12.6549 58.9661 12.9632C58.9661 13.2715 58.9298 13.5979 58.8573 13.9424C58.7847 14.2688 58.6669 14.7584 58.5037 15.4112C58.3405 16.064 58.2135 16.5989 58.1229 17.016C58.0322 17.4331 57.9325 17.9408 57.8237 18.5392C57.6242 19.5365 57.5245 20.4251 57.5245 21.2048C57.5245 21.9664 57.733 22.3472 58.1501 22.3472ZM61.6995 33.8528C59.9768 33.8528 59.1155 32.9733 59.1155 31.2144C59.1155 30.1808 59.5053 29.0656 60.2851 27.8688C61.4093 26.1099 62.9144 24.9493 64.8003 24.3872C65.4712 24.1877 66.1693 24.088 66.8947 24.088C67.0216 24.088 67.0851 24.2149 67.0851 24.4688C67.0851 24.7227 67.0216 24.8496 66.8947 24.8496C64.7549 24.8496 62.9597 25.6928 61.5091 27.3792C60.4392 28.6485 59.9043 29.8725 59.9043 31.0512C59.9043 32.2299 60.3576 32.9099 61.2643 33.0912L61.6995 33.1184C63.2045 33.1184 64.4104 32.4837 65.3171 31.2144C65.9517 30.3077 66.4232 29.3829 66.7315 28.44C67.0579 27.5152 67.2936 26.7717 67.4387 26.2096C67.6019 25.6475 67.7832 24.904 67.9827 23.9792C68.1821 23.0725 68.3363 22.3019 68.4451 21.6672C68.572 21.0325 68.7443 20.1259 68.9619 18.9472C69.1976 17.7504 69.3789 16.8075 69.5059 16.1184H69.3427C67.1485 20.7061 65.3443 23 63.9299 23C62.7149 23 62.1075 22.2112 62.1075 20.6336C62.1075 19.4912 62.5971 17.2155 63.5763 13.8064C63.7939 13.0267 63.9571 12.4464 64.0659 12.0656C64.1747 11.6667 64.3469 11.4672 64.5827 11.4672C64.9091 11.4672 65.1448 11.7029 65.2899 12.1744C65.3624 12.3739 65.3987 12.6277 65.3987 12.936C65.3987 13.2261 65.3533 13.5525 65.2627 13.9152C65.172 14.2597 64.9816 14.9307 64.6915 15.928C63.9117 18.6117 63.5219 20.416 63.5219 21.3408C63.5219 21.9392 63.7032 22.2384 64.0659 22.2384C64.5011 22.2384 65.036 21.8304 65.6707 21.0144C66.3235 20.1984 66.9581 19.2011 67.5747 18.0224C68.6989 15.8827 69.6147 13.888 70.3219 12.0384C70.4669 11.6576 70.6483 11.4672 70.8659 11.4672C71.1741 11.4672 71.4008 11.7029 71.5459 12.1744C71.6184 12.4283 71.6547 12.7093 71.6547 13.0176C71.6547 13.3259 71.5005 14.2144 71.1923 15.6832C70.9021 17.152 70.6029 18.5573 70.2947 19.8992C70.0045 21.2411 69.6147 22.8187 69.1251 24.632C68.6536 26.4453 68.2003 27.7963 67.7651 28.6848C67.348 29.5733 66.8312 30.48 66.2147 31.4048C65.6163 32.3296 64.9453 32.9643 64.2019 33.3088C63.4584 33.6715 62.6243 33.8528 61.6995 33.8528ZM74.9745 23.0272C73.542 23.0272 72.8257 21.9483 72.8257 19.7904C72.8257 18.5392 73.1521 17.1701 73.8049 15.6832C74.7116 13.6704 75.863 12.3557 77.2593 11.7392C77.7489 11.5397 78.2385 11.44 78.7281 11.44C79.2358 11.44 79.6348 11.5851 79.9249 11.8752C80.215 12.1653 80.3601 12.4917 80.3601 12.8544C80.3601 13.0176 80.2694 13.0992 80.0881 13.0992C79.9249 13.0811 79.8433 12.9904 79.8433 12.8272C79.8433 12.664 79.7526 12.5189 79.5713 12.392C79.4081 12.2469 79.1633 12.1744 78.8369 12.1744C77.6945 12.1744 76.6609 13.1989 75.7361 15.248C74.8657 17.152 74.4305 18.9563 74.4305 20.6608C74.4305 21.7125 74.6572 22.2384 75.1105 22.2384C75.582 22.2384 76.1441 21.8485 76.7969 21.0688C77.4678 20.2709 78.0844 19.3461 78.6465 18.2944C79.8614 16.0821 80.5777 14.6587 80.7953 14.024C81.0129 13.3893 81.2486 13.072 81.5025 13.072C81.9558 13.072 82.1825 13.4528 82.1825 14.2144C82.1825 14.4501 82.1553 14.7221 82.1009 15.0304C81.5025 17.9317 81.1761 19.6091 81.1217 20.0624C81.0854 20.5157 81.0673 20.8421 81.0673 21.0416C81.0673 21.912 81.2758 22.3472 81.6929 22.3472C82.1644 22.3472 82.8262 21.7216 83.6785 20.4704C84.5308 19.2192 85.2652 17.968 85.8817 16.7168L86.8065 14.84H87.5409C87.4321 15.0576 87.287 15.3568 87.1057 15.7376C86.9425 16.1003 86.607 16.7621 86.0993 17.7232C85.5916 18.6661 85.102 19.5003 84.6305 20.2256C84.1772 20.9509 83.6604 21.6128 83.0801 22.2112C82.518 22.7915 82.0284 23.0816 81.6113 23.0816C80.2694 23.0816 79.5985 22.1024 79.5985 20.144C79.5985 19.4912 79.671 18.7296 79.8161 17.8592H79.6257C77.7761 21.3045 76.2257 23.0272 74.9745 23.0272ZM101.677 5.6736L106.301 5.9728H106.383C107.235 3.99627 108.332 3.008 109.674 3.008C109.928 3.008 110.1 3.12587 110.191 3.3616L110.218 3.4704C109.112 3.4704 108.26 4.26827 107.661 5.864C109.456 5.592 110.717 4.82133 111.442 3.552C111.732 3.0624 111.877 2.66347 111.877 2.3552C111.877 1.61173 111.623 1.24 111.116 1.24C111.243 0.9136 111.46 0.7504 111.768 0.7504C112.385 0.7504 112.693 1.17653 112.693 2.0288C112.693 2.88107 112.358 3.70613 111.687 4.504C110.69 5.6464 109.275 6.3264 107.444 6.544C107.19 7.37813 106.954 8.52053 106.736 9.9712C108.169 10.2795 109.293 11.0683 110.109 12.3376C111.415 11.2496 112.82 9.32747 114.325 6.5712C114.906 5.51947 115.504 4.504 116.12 3.5248C117.499 1.3488 118.949 0.2608 120.472 0.2608C120.654 0.2608 120.79 0.306134 120.88 0.3968C120.989 0.469334 121.053 0.5872 121.071 0.7504C119.403 0.7504 118.034 1.9472 116.964 4.3408C116.492 5.39253 116.012 6.48053 115.522 7.6048C115.051 8.72907 114.398 9.84427 113.564 10.9504C112.748 12.0565 111.796 12.8997 110.708 13.48C111.288 14.7493 111.823 16.9616 112.312 20.1168C112.476 21.1504 112.693 22.1568 112.965 23.136C113.509 25.2213 114.57 26.264 116.148 26.264C116.111 26.5904 115.876 26.7536 115.44 26.7536C114.298 26.7536 113.373 26.4725 112.666 25.9104C111.977 25.3483 111.496 24.5685 111.224 23.5712C110.952 22.5739 110.753 21.5675 110.626 20.552C110.517 19.5184 110.399 18.3579 110.272 17.0704C110.146 15.7648 109.964 14.7131 109.728 13.9152C108.749 14.296 107.589 14.4864 106.247 14.4864H106.029C105.376 18.3488 104.388 21.0597 103.064 22.6192C102.557 23.2176 101.904 23.7072 101.106 24.088C100.308 24.4869 99.4378 24.6864 98.4948 24.6864C97.5519 24.6864 96.754 24.5232 96.1012 24.1968C95.4666 23.8704 95.0132 23.4533 94.7412 22.9456C94.3242 22.2021 94.1156 21.5221 94.1156 20.9056C94.1156 20.2891 94.2063 19.7179 94.3876 19.192C94.569 18.648 94.8319 18.1221 95.1764 17.6144C95.521 17.0885 95.9743 16.6624 96.5364 16.336C97.1167 16.0096 97.7332 15.8464 98.386 15.8464C98.7306 15.8464 98.9754 15.9733 99.1204 16.2272L99.202 16.3632C97.6063 16.3632 96.3914 17.0341 95.5572 18.376C95.0858 19.1557 94.85 19.9355 94.85 20.7152C94.85 21.0779 94.8954 21.4496 94.986 21.8304C95.385 23.2448 96.3823 23.952 97.978 23.952C99.2655 23.952 100.308 23.4715 101.106 22.5104C101.94 21.5131 102.593 20.3163 103.064 18.92C103.445 17.7957 103.862 16.2181 104.316 14.1872C103.427 13.8608 102.865 13.344 102.629 12.6368C102.557 12.4011 102.52 12.12 102.52 11.7936C102.52 11.4672 102.684 11.1045 103.01 10.7056C103.518 10.1253 104.261 9.82613 105.24 9.808C105.567 8.3936 105.866 7.32373 106.138 6.5984L102.004 6.3264C99.9908 6.3264 98.5492 7.07893 97.6788 8.584C97.2618 9.30933 97.0532 9.944 97.0532 10.488C97.0532 11.032 97.1167 11.4944 97.2436 11.8752C97.6063 12.8363 98.1956 13.344 99.0116 13.3984C99.0116 13.5435 98.9391 13.6795 98.794 13.8064C98.649 13.9333 98.4676 13.9968 98.25 13.9968C97.1802 13.9968 96.4548 13.4528 96.074 12.3648C95.9108 11.9115 95.8292 11.3856 95.8292 10.7872C95.8292 10.1707 96.0196 9.47253 96.4004 8.6928C97.3978 6.68 99.1567 5.6736 101.677 5.6736ZM106.274 13.8064C107.362 13.8064 108.387 13.4981 109.348 12.8816C108.749 11.6304 107.843 10.8688 106.628 10.5968L106.138 13.8064H106.274ZM105.077 10.4608C104.424 10.5152 103.953 10.7056 103.663 11.032C103.391 11.3584 103.255 11.6395 103.255 11.8752C103.255 12.6187 103.654 13.1627 104.452 13.5072C104.615 12.7456 104.823 11.7301 105.077 10.4608ZM118.301 19.4096C118.301 21.3136 118.809 22.2656 119.825 22.2656C120.514 22.2656 121.157 21.8395 121.756 20.9872C122.898 19.3915 123.596 17.288 123.85 14.6768C123.216 14.4048 122.771 13.9605 122.517 13.344C122.354 12.9632 122.273 12.6459 122.273 12.392C122.273 12.12 122.309 11.8843 122.381 11.6848C122.545 11.1952 122.844 10.9504 123.279 10.9504C123.714 10.9504 124.041 11.2315 124.258 11.7936C124.494 12.3376 124.612 13.0357 124.612 13.888C124.612 13.9424 124.612 14.0059 124.612 14.0784C124.829 14.1509 125.147 14.1872 125.564 14.1872C125.999 14.1872 126.38 14.0149 126.706 13.6704C127.033 13.3259 127.196 13.0085 127.196 12.7184C127.196 12.6459 127.241 12.6005 127.332 12.5824C127.422 12.5461 127.504 12.5461 127.577 12.5824C127.667 12.6187 127.713 12.6731 127.713 12.7456C127.713 13.2715 127.486 13.7701 127.033 14.2416C126.597 14.7131 126.008 14.9488 125.265 14.9488C125.083 14.9488 124.848 14.9307 124.557 14.8944C124.449 16.1275 124.186 17.3515 123.769 18.5664C123.37 19.7632 122.808 20.8059 122.082 21.6944C121.357 22.5648 120.577 23 119.743 23C118.165 23 117.195 22.1568 116.833 20.4704C116.742 19.9808 116.697 19.4821 116.697 18.9744C116.697 17.832 116.96 16.608 117.485 15.3024C118.174 13.5979 119.027 12.5371 120.042 12.12C120.568 11.9387 120.931 11.9115 121.13 12.0384C121.33 12.1653 121.457 12.3104 121.511 12.4736C120.677 12.4736 119.933 13.2533 119.281 14.8128C118.628 16.3723 118.301 17.9045 118.301 19.4096ZM133.943 10.9504C134.723 10.9504 135.113 11.7029 135.113 13.208C135.113 13.48 135.095 13.7611 135.058 14.0512C135.367 14.1419 135.72 14.1872 136.119 14.1872C136.518 14.1872 136.881 14.0149 137.207 13.6704C137.534 13.3259 137.697 13.0085 137.697 12.7184C137.697 12.6459 137.742 12.6005 137.833 12.5824C137.923 12.5461 138.005 12.5461 138.078 12.5824C138.168 12.6187 138.214 12.6731 138.214 12.7456C138.214 13.2715 137.987 13.7701 137.534 14.2416C137.098 14.7131 136.509 14.9488 135.766 14.9488C135.475 14.9488 135.213 14.9216 134.977 14.8672C134.505 17.7685 133.562 20.0443 132.148 21.6944C131.405 22.5648 130.679 23 129.972 23C128.666 23 127.869 22.5648 127.578 21.6944C127.415 21.2229 127.334 20.7243 127.334 20.1984C127.334 19.6725 127.406 19.0469 127.551 18.3216C127.787 17.1429 128.277 15.248 129.02 12.6368C129.129 12.256 129.301 12.0656 129.537 12.0656C129.863 12.0656 130.099 12.3013 130.244 12.7728C130.317 12.9723 130.353 13.2261 130.353 13.5344C130.353 13.8245 130.298 14.1781 130.19 14.5952C129.501 17.1883 129.111 18.7568 129.02 19.3008C128.929 19.8267 128.884 20.28 128.884 20.6608C128.884 21.7307 129.219 22.2656 129.89 22.2656C130.87 22.2656 131.776 21.4496 132.61 19.8176C133.463 18.1856 134.043 16.4539 134.351 14.6224C133.807 14.3323 133.445 13.9515 133.263 13.48C133.1 12.9904 133.018 12.6187 133.018 12.3648C133.018 12.0928 133.055 11.8571 133.127 11.6576C133.272 11.1861 133.544 10.9504 133.943 10.9504ZM138.99 23.0272C137.558 23.0272 136.841 21.9483 136.841 19.7904C136.841 18.5392 137.168 17.1701 137.821 15.6832C138.727 13.6704 139.879 12.3557 141.275 11.7392C141.765 11.5397 142.254 11.44 142.744 11.44C143.251 11.44 143.65 11.5851 143.941 11.8752C144.231 12.1653 144.376 12.4917 144.376 12.8544C144.376 13.0176 144.285 13.0992 144.104 13.0992C143.941 13.0811 143.859 12.9904 143.859 12.8272C143.859 12.664 143.768 12.5189 143.587 12.392C143.424 12.2469 143.179 12.1744 142.853 12.1744C141.71 12.1744 140.677 13.1989 139.752 15.248C138.881 17.152 138.446 18.9563 138.446 20.6608C138.446 21.7125 138.673 22.2384 139.126 22.2384C139.598 22.2384 140.16 21.8485 140.813 21.0688C141.483 20.2709 142.1 19.3461 142.662 18.2944C143.877 16.0821 144.593 14.6587 144.811 14.024C145.029 13.3893 145.264 13.072 145.518 13.072C145.971 13.072 146.198 13.4528 146.198 14.2144C146.198 14.4501 146.171 14.7221 146.117 15.0304C145.518 17.9317 145.192 19.6091 145.137 20.0624C145.101 20.5157 145.083 20.8421 145.083 21.0416C145.083 21.912 145.291 22.3472 145.709 22.3472C146.18 22.3472 146.842 21.7216 147.694 20.4704C148.546 19.2192 149.281 17.968 149.897 16.7168L150.822 14.84H151.557C151.448 15.0576 151.303 15.3568 151.121 15.7376C150.958 16.1003 150.623 16.7621 150.115 17.7232C149.607 18.6661 149.118 19.5003 148.646 20.2256C148.193 20.9509 147.676 21.6128 147.096 22.2112C146.534 22.7915 146.044 23.0816 145.627 23.0816C144.285 23.0816 143.614 22.1024 143.614 20.144C143.614 19.4912 143.687 18.7296 143.832 17.8592H143.641C141.792 21.3045 140.241 23.0272 138.99 23.0272ZM156.736 5.9456C157.389 4.24107 157.715 3.08053 157.715 2.464C157.715 1.84747 157.561 1.52107 157.253 1.4848C156.401 1.4848 155.512 2.85387 154.587 5.592C153.681 8.312 152.964 11.1408 152.438 14.0784C151.931 16.9979 151.677 19.0651 151.677 20.28C151.677 22.3291 152.185 23.3536 153.2 23.3536C153.2 23.4805 153.118 23.6075 152.955 23.7344C152.792 23.8613 152.602 23.9248 152.384 23.9248C150.897 23.9248 150.154 22.592 150.154 19.9264C150.154 18.9472 150.335 17.4512 150.698 15.4384C151.06 13.4075 151.532 11.2859 152.112 9.0736C152.692 6.86133 153.445 4.9392 154.37 3.3072C155.294 1.65707 156.237 0.832 157.198 0.832C157.96 0.832 158.341 1.31253 158.341 2.2736C158.341 2.99893 158.114 4.0144 157.661 5.32C156.79 7.85867 155.539 10.3973 153.907 12.936C153.472 13.6069 153.082 14.1509 152.738 14.568C152.647 14.6768 152.602 14.6405 152.602 14.4592C152.584 14.1147 152.665 13.8155 152.846 13.5616C154.333 11.3312 155.63 8.79253 156.736 5.9456ZM157.901 19.0288C157.901 21.2229 158.68 22.32 160.24 22.32C160.82 22.32 161.428 22.0661 162.062 21.5584C162.715 21.0325 163.304 20.4069 163.83 19.6816C164.991 18.0133 165.807 16.6533 166.278 15.6016L166.632 14.84H167.366C167.058 15.5653 166.605 16.4629 166.006 17.5328C165.408 18.5845 164.837 19.4731 164.293 20.1984C163.749 20.9237 163.105 21.5856 162.362 22.184C161.618 22.7643 160.911 23.0544 160.24 23.0544C157.556 23.0544 156.214 21.5493 156.214 18.5392C156.214 17.1429 156.622 15.7467 157.438 14.3504C158.563 12.4101 159.95 11.44 161.6 11.44C162.76 11.44 163.341 12.0747 163.341 13.344C163.341 14.2869 162.978 15.2661 162.253 16.2816C161.237 17.6597 160.05 18.3579 158.69 18.376C158.49 18.376 158.363 18.2853 158.309 18.104L158.282 17.9952C159.224 17.9952 160.122 17.3787 160.974 16.1456C161.845 14.8944 162.28 13.8517 162.28 13.0176C162.28 12.4555 162.062 12.1744 161.627 12.1744C160.666 12.1744 159.768 13.0176 158.934 14.704C158.245 16.1365 157.901 17.5781 157.901 19.0288ZM166.209 23C165.701 23 165.448 22.6101 165.448 21.8304C165.448 21.4133 165.955 18.376 166.971 12.7184C167.025 12.3376 167.188 12.1472 167.46 12.1472C167.787 12.1472 168.032 12.3829 168.195 12.8544C168.285 13.1083 168.331 13.3893 168.331 13.6976C168.331 13.9877 168.295 14.3051 168.222 14.6496L167.787 16.8256H167.95C169.582 13.1627 171.141 11.3312 172.628 11.3312C173.209 11.3312 173.653 11.5125 173.961 11.8752C174.269 12.2197 174.424 12.7003 174.424 13.3168C174.424 13.9333 174.179 15.2661 173.689 17.3152C173.2 19.3643 172.955 20.7877 172.955 21.5856C172.955 22.7643 173.172 23.3536 173.608 23.3536C173.608 23.4805 173.526 23.6075 173.363 23.7344C173.2 23.8613 173.009 23.9248 172.792 23.9248C171.74 23.9248 171.214 23.0997 171.214 21.4496C171.214 20.4341 171.486 18.9019 172.03 16.8528C172.592 14.7856 172.873 13.4709 172.873 12.9088C172.873 12.3285 172.647 12.0384 172.193 12.0384C171.54 12.0384 170.752 12.8907 169.827 14.5952C168.92 16.2997 168.186 17.9317 167.624 19.4912C167.08 21.0325 166.762 22.0027 166.672 22.4016C166.599 22.8005 166.445 23 166.209 23ZM183.005 15.928C183.712 14.8944 184.066 14.0059 184.066 13.2624C184.066 12.5189 183.821 12.1472 183.331 12.1472C182.751 12.1472 182.116 12.6368 181.427 13.616C180.738 14.5771 180.122 15.7285 179.578 17.0704C178.526 19.6635 177.882 21.4587 177.647 22.456C177.538 22.8187 177.384 23 177.184 23C176.858 23 176.613 22.8005 176.45 22.4016C176.359 22.184 176.314 21.9573 176.314 21.7216C176.314 21.4677 176.386 21.0144 176.531 20.3616C176.676 19.6907 176.921 18.5211 177.266 16.8528C177.592 15.1845 177.873 13.8064 178.109 12.7184C178.345 11.6123 178.617 10.3792 178.925 9.0192C179.233 7.64107 179.523 6.52587 179.795 5.6736C180.086 4.8032 180.412 3.96907 180.775 3.1712C181.464 1.61173 182.252 0.832 183.141 0.832C183.957 0.832 184.365 1.376 184.365 2.464C184.365 2.736 184.338 3.05333 184.283 3.416C184.011 5.13867 183.295 6.91573 182.135 8.7472C181.3 10.0709 180.512 10.9051 179.768 11.2496C179.641 11.9205 179.469 12.8816 179.251 14.1328C179.034 15.384 178.88 16.2544 178.789 16.744H178.925C180.466 13.2443 182.035 11.4944 183.631 11.4944C184.827 11.4944 185.426 12.1563 185.426 13.48C185.426 14.3504 185.054 15.2933 184.311 16.3088C183.585 17.3243 182.606 17.9771 181.373 18.2672C181.99 18.5029 182.506 18.92 182.923 19.5184C183.359 20.0987 183.658 20.6608 183.821 21.2048C184.238 22.6373 184.655 23.3536 185.072 23.3536C185.072 23.4805 184.991 23.6075 184.827 23.7344C184.664 23.8613 184.474 23.9248 184.256 23.9248C183.64 23.9248 183.15 23.6347 182.787 23.0544C182.443 22.4741 182.216 21.8395 182.107 21.1504C181.999 20.4613 181.799 19.8267 181.509 19.2464C181.219 18.6661 180.82 18.376 180.312 18.376H180.258C180.095 18.376 179.977 18.2491 179.904 17.9952C181.028 17.9952 182.062 17.3061 183.005 15.928ZM183.739 2.5184C183.739 1.93813 183.576 1.58453 183.25 1.4576C182.18 1.4576 181.074 4.4496 179.931 10.4336C180.657 9.92587 181.409 8.9104 182.189 7.3872C183.223 5.33813 183.739 3.7152 183.739 2.5184ZM188.659 19.4096C188.659 21.3136 189.167 22.2656 190.182 22.2656C190.871 22.2656 191.515 21.8395 192.113 20.9872C193.256 19.3915 193.954 17.288 194.208 14.6768C193.573 14.4048 193.129 13.9605 192.875 13.344C192.712 12.9632 192.63 12.6459 192.63 12.392C192.63 12.12 192.666 11.8843 192.739 11.6848C192.902 11.1952 193.201 10.9504 193.636 10.9504C194.072 10.9504 194.398 11.2315 194.616 11.7936C194.851 12.3376 194.969 13.0357 194.969 13.888C194.969 13.9424 194.969 14.0059 194.969 14.0784C195.187 14.1509 195.504 14.1872 195.921 14.1872C196.356 14.1872 196.737 14.0149 197.064 13.6704C197.39 13.3259 197.553 13.0085 197.553 12.7184C197.553 12.6459 197.599 12.6005 197.689 12.5824C197.78 12.5461 197.861 12.5461 197.934 12.5824C198.025 12.6187 198.07 12.6731 198.07 12.7456C198.07 13.2715 197.843 13.7701 197.39 14.2416C196.955 14.7131 196.365 14.9488 195.622 14.9488C195.441 14.9488 195.205 14.9307 194.915 14.8944C194.806 16.1275 194.543 17.3515 194.126 18.5664C193.727 19.7632 193.165 20.8059 192.44 21.6944C191.714 22.5648 190.935 23 190.1 23C188.523 23 187.553 22.1568 187.19 20.4704C187.099 19.9808 187.054 19.4821 187.054 18.9744C187.054 17.832 187.317 16.608 187.843 15.3024C188.532 13.5979 189.384 12.5371 190.4 12.12C190.925 11.9387 191.288 11.9115 191.488 12.0384C191.687 12.1653 191.814 12.3104 191.868 12.4736C191.034 12.4736 190.291 13.2533 189.638 14.8128C188.985 16.3723 188.659 17.9045 188.659 19.4096Z" fill="#AD6049"/>
</svg>
