<svg width="26" height="30" viewBox="0 0 26 30" fill="none" xmlns="http://www.w3.org/2000/svg">
<path fill-rule="evenodd" clip-rule="evenodd" d="M13.0001 2.6665C12.6936 2.6665 12.3902 2.72686 12.1071 2.84412C11.824 2.96138 11.5668 3.13325 11.3501 3.34992C11.1335 3.56659 10.9616 3.82382 10.8443 4.10691C10.7271 4.39 10.6667 4.69342 10.6667 4.99984C10.6667 5.30625 10.7271 5.60967 10.8443 5.89276C10.9616 6.17586 11.1335 6.43308 11.3501 6.64975C11.5668 6.86642 11.824 7.03829 12.1071 7.15556C12.3902 7.27282 12.6936 7.33317 13.0001 7.33317C13.6189 7.33317 14.2124 7.08734 14.65 6.64975C15.0876 6.21217 15.3334 5.61868 15.3334 4.99984C15.3334 4.381 15.0876 3.78751 14.65 3.34992C14.2124 2.91234 13.6189 2.6665 13.0001 2.6665ZM8.66673 4.99984C8.66673 3.85057 9.12328 2.74837 9.93594 1.93571C10.7486 1.12305 11.8508 0.666504 13.0001 0.666504C14.1493 0.666504 15.2515 1.12305 16.0642 1.93571C16.8769 2.74837 17.3334 3.85057 17.3334 4.99984C17.3334 6.14911 16.8769 7.25131 16.0642 8.06397C15.2515 8.87662 14.1493 9.33317 13.0001 9.33317C11.8508 9.33317 10.7486 8.87662 9.93594 8.06397C9.12328 7.25131 8.66673 6.14911 8.66673 4.99984ZM13.0001 12.0265C12.6167 12.0221 12.2335 12.0453 11.8534 12.0958L10.6641 12.2958C7.98006 12.7478 6.00006 15.0985 6.00006 17.8665C6.00081 18.576 5.82734 19.2748 5.49489 19.9015C5.16245 20.5283 4.68119 21.0639 4.0934 21.4612L3.96006 21.5532C3.62043 21.7824 3.25129 21.9645 2.86273 22.0945L1.32006 22.6145C1.06864 22.6994 0.793797 22.6809 0.556001 22.5631C0.318205 22.4453 0.136934 22.2379 0.0520644 21.9865C-0.0328048 21.7351 -0.01432 21.4602 0.103453 21.2224C0.221226 20.9846 0.428639 20.8034 0.680064 20.7185L2.2254 20.1985C2.44406 20.1247 2.6494 20.0234 2.8414 19.8945L2.9774 19.8025C3.29322 19.5881 3.55161 19.2994 3.72991 18.9619C3.90821 18.6244 4.00097 18.2482 4.00006 17.8665C4.00006 14.1372 6.67073 10.9398 10.3307 10.3238L11.5174 10.1238C12.0083 10.0525 12.5041 10.0204 13.0001 10.0278C13.4961 10.0204 13.9918 10.0525 14.4827 10.1238L15.6694 10.3238C19.3307 10.9398 22.0001 14.1372 22.0001 17.8665C22.0001 18.6478 22.3867 19.3732 23.0241 19.8025L23.1587 19.8945C23.3516 20.0234 23.5574 20.1247 23.7761 20.1985L25.3201 20.7185C25.5715 20.8034 25.7789 20.9846 25.8967 21.2224C26.0144 21.4602 26.0329 21.7351 25.9481 21.9865C25.8632 22.2379 25.6819 22.4453 25.4441 22.5631C25.2063 22.6809 24.9315 22.6994 24.6801 22.6145L23.1374 22.0945C22.7493 21.9644 22.3806 21.7823 22.0414 21.5532L21.9067 21.4612C21.3189 21.0639 20.8377 20.5283 20.5052 19.9015C20.1728 19.2748 19.9993 18.576 20.0001 17.8665C20.0001 15.0985 18.0201 12.7478 15.3374 12.2958L14.1481 12.0958C13.768 12.0457 13.3848 12.023 13.0014 12.0278M8.86806 19.7345C8.94686 19.6294 9.04557 19.5409 9.15857 19.474C9.27157 19.4071 9.39664 19.3631 9.52664 19.3446C9.65664 19.326 9.78903 19.3332 9.91625 19.3658C10.0435 19.3984 10.163 19.4557 10.2681 19.5345C10.3731 19.6133 10.4616 19.712 10.5285 19.825C10.5954 19.938 10.6394 20.0631 10.658 20.1931C10.6766 20.3231 10.6694 20.4555 10.6368 20.5827C10.6042 20.7099 10.5469 20.8294 10.4681 20.9345L9.23606 22.5785L9.20673 22.6172C9.06582 22.8119 8.91449 22.9988 8.7534 23.1772C8.37768 23.5709 7.91904 23.8761 7.41073 24.0705C7.20406 24.1478 6.9894 24.2012 6.7174 24.2705L6.67073 24.2812L4.27873 24.8798C3.98484 24.9548 3.72836 25.1343 3.5573 25.3847C3.38624 25.6352 3.31236 25.9394 3.34947 26.2404C3.38659 26.5414 3.53216 26.8186 3.75893 27.02C3.9857 27.2214 4.27811 27.3332 4.5814 27.3345H5.4934C7.55473 27.3345 9.56006 26.6665 11.2094 25.4292L13.7334 23.5332C13.8385 23.4544 13.958 23.397 14.0852 23.3645C14.2124 23.3319 14.3448 23.3246 14.4748 23.3432C14.6048 23.3618 14.7299 23.4058 14.8429 23.4727C14.9559 23.5396 15.0546 23.6281 15.1334 23.7332C15.2122 23.8382 15.2695 23.9578 15.3021 24.085C15.3347 24.2122 15.3419 24.3446 15.3233 24.4746C15.3048 24.6046 15.2608 24.7297 15.1939 24.8427C15.127 24.9557 15.0385 25.0544 14.9334 25.1332L13.7281 26.0372L14.3827 26.2838C15.0947 26.5505 15.4161 26.6705 15.7387 26.7718C16.7096 27.0747 17.714 27.2569 18.7294 27.3145C19.0667 27.3332 19.4094 27.3332 20.1694 27.3332H21.4214C21.7246 27.3315 22.0168 27.2195 22.2433 27.018C22.4698 26.8165 22.6152 26.5393 22.6521 26.2384C22.689 25.9375 22.6151 25.6334 22.444 25.3831C22.2729 25.1328 22.0165 24.9534 21.7227 24.8785L19.7587 24.3865L19.6494 24.3598C19.0147 24.2012 18.5147 24.0772 18.0681 23.8185C17.9343 23.7407 17.8052 23.6552 17.6814 23.5625C17.2707 23.2505 16.9614 22.8385 16.5707 22.3145L16.5027 22.2252L15.5334 20.9332C15.4546 20.8281 15.3973 20.7086 15.3647 20.5814C15.3321 20.4541 15.3249 20.3218 15.3434 20.1917C15.362 20.0617 15.406 19.9367 15.4729 19.8237C15.5398 19.7107 15.6283 19.612 15.7334 19.5332C15.8385 19.4544 15.958 19.397 16.0852 19.3645C16.2124 19.3319 16.3448 19.3246 16.4748 19.3432C16.6048 19.3618 16.7299 19.4058 16.8429 19.4727C16.9559 19.5396 17.0546 19.6281 17.1334 19.7332L18.1027 21.0252C18.5934 21.6798 18.7307 21.8492 18.8907 21.9705C18.9467 22.0114 19.0054 22.0501 19.0667 22.0865C19.2401 22.1865 19.4494 22.2478 20.2441 22.4465L22.2081 22.9372C22.9763 23.1296 23.6478 23.5963 24.0959 24.2494C24.5441 24.9024 24.7381 25.6967 24.6414 26.4828C24.5448 27.2689 24.164 27.9926 23.571 28.5176C22.9779 29.0425 22.2134 29.3326 21.4214 29.3332H20.1374C19.4187 29.3332 19.0174 29.3332 18.6174 29.3105C17.4372 29.2437 16.2698 29.0319 15.1414 28.6798C14.7601 28.5598 14.3854 28.4198 13.7121 28.1678L11.8027 27.4518C9.92671 28.6789 7.73375 29.3327 5.49206 29.3332H4.58006C3.78804 29.3326 3.02353 29.0425 2.43047 28.5176C1.83742 27.9926 1.45671 27.2689 1.36002 26.4828C1.26334 25.6967 1.45734 24.9024 1.90551 24.2494C2.35369 23.5963 3.02511 23.1296 3.7934 22.9372L6.18406 22.3398C6.52406 22.2545 6.61606 22.2305 6.69606 22.1998C6.92673 22.1118 7.13606 21.9732 7.30673 21.7945C7.3654 21.7318 7.42406 21.6585 7.63473 21.3772L8.86806 19.7345Z" fill="#AD6049"/>
</svg>
