<svg width="30" height="30" viewBox="0 0 30 30" fill="none" xmlns="http://www.w3.org/2000/svg">
<path d="M15.0002 3.14152L14.3228 3.87752C14.5074 4.04712 14.7489 4.14123 14.9995 4.14123C15.2501 4.14123 15.4916 4.04712 15.6762 3.87752L15.0002 3.14152ZM13.1228 9.92819C12.2028 9.25752 11.2202 8.44152 10.4788 7.58152C9.7135 6.69485 9.3335 5.90952 9.3335 5.28685H7.3335C7.3335 6.64285 8.10416 7.89219 8.96416 8.88819C9.84816 9.91219 10.9655 10.8309 11.9442 11.5442L13.1228 9.92819ZM9.3335 5.28685C9.3335 3.87485 10.0268 3.06952 10.8615 2.78952C11.7308 2.49619 13.0268 2.68552 14.3228 3.87752L15.6762 2.40552C13.9735 0.840187 11.9388 0.31752 10.2242 0.89352C8.4735 1.48285 7.3335 3.12819 7.3335 5.28685H9.3335ZM18.0562 11.5442C19.0348 10.8322 20.1522 9.91219 21.0362 8.88819C21.8962 7.89219 22.6668 6.64285 22.6668 5.28685H20.6668C20.6668 5.90952 20.2882 6.69485 19.5215 7.58152C18.7802 8.44152 17.7988 9.25752 16.8788 9.92819L18.0562 11.5442ZM22.6668 5.28685C22.6668 3.12819 21.5268 1.48285 19.7775 0.89352C18.0628 0.31752 16.0268 0.840187 14.3242 2.40552L15.6775 3.87752C16.9735 2.68552 18.2708 2.49619 19.1402 2.78952C19.9735 3.06952 20.6668 3.87485 20.6668 5.28685H22.6668ZM11.9442 11.5442C12.9508 12.2775 13.7495 12.9015 15.0002 12.9015V10.9015C14.5135 10.9015 14.2468 10.7482 13.1228 9.92819L11.9442 11.5442ZM16.8775 9.92819C15.7535 10.7482 15.4868 10.9015 15.0002 10.9015V12.9015C16.2508 12.9015 17.0495 12.2789 18.0562 11.5442L16.8775 9.92819Z" fill="#AD6049"/>
<path d="M5.66675 26.1841H8.68008C10.0267 26.1841 11.3907 26.3254 12.7014 26.5948C15.0416 27.074 17.449 27.1273 19.8081 26.7521C20.9654 26.5654 22.1014 26.2788 23.1307 25.7828C24.0587 25.3334 25.1961 24.7028 25.9601 23.9948C26.7227 23.2881 27.5174 22.1321 28.0801 21.2281C28.5654 20.4521 28.3307 19.5014 27.5654 18.9241C27.1351 18.6119 26.6171 18.4437 26.0854 18.4437C25.5538 18.4437 25.0357 18.6119 24.6054 18.9241L22.1961 20.7441C21.2627 21.4508 20.2427 22.1001 19.0281 22.2934C18.8814 22.3166 18.7281 22.3374 18.5681 22.3561M18.5681 22.3561L18.4214 22.3721M18.5681 22.3561C18.7815 22.2983 18.9771 22.1883 19.1374 22.0361C19.3387 21.8625 19.503 21.6503 19.6208 21.412C19.7385 21.1737 19.8072 20.9143 19.8229 20.649C19.8386 20.3836 19.8008 20.1179 19.712 19.8674C19.6231 19.617 19.4848 19.3869 19.3054 19.1908C19.1317 18.9979 18.9293 18.8329 18.7054 18.7014C14.9761 16.4761 9.17208 18.1708 5.66675 20.6574M18.5681 22.3561C18.5199 22.3669 18.4707 22.3722 18.4214 22.3721M18.4214 22.3721C17.6173 22.4527 16.8072 22.4545 16.0027 22.3774" stroke="#AD6049" stroke-width="1.5" stroke-linecap="round"/>
<path d="M5.66675 19.667C5.66675 18.5624 4.77132 17.667 3.66675 17.667C2.56218 17.667 1.66675 18.5624 1.66675 19.667V26.3337C1.66675 27.4382 2.56218 28.3337 3.66675 28.3337C4.77132 28.3337 5.66675 27.4382 5.66675 26.3337V19.667Z" stroke="#AD6049" stroke-width="1.5"/>
</svg>
