<svg width="30" height="30" viewBox="0 0 30 30" fill="none" xmlns="http://www.w3.org/2000/svg">
<path fill-rule="evenodd" clip-rule="evenodd" d="M14.9241 0.666504H17.0001C17.2653 0.666504 17.5196 0.771861 17.7072 0.959397C17.8947 1.14693 18.0001 1.40129 18.0001 1.6665C18.0001 1.93172 17.8947 2.18607 17.7072 2.37361C17.5196 2.56115 17.2653 2.6665 17.0001 2.6665H15.0001C11.8294 2.6665 9.55208 2.66917 7.81875 2.90117C6.11341 3.1305 5.08541 3.56784 4.32541 4.3265C3.56675 5.0865 3.13075 6.11317 2.90141 7.8185C2.66941 9.55184 2.66675 11.8292 2.66675 14.9998C2.66675 18.1705 2.66941 20.4478 2.90141 22.1812C3.13075 23.8865 3.56808 24.9145 4.32675 25.6745C5.08675 26.4332 6.11341 26.8692 7.81875 27.0985C9.55208 27.3305 11.8294 27.3332 15.0001 27.3332C18.1707 27.3332 20.4481 27.3305 22.1814 27.0985C23.8867 26.8692 24.9147 26.4318 25.6747 25.6732C26.4334 24.9132 26.8694 23.8865 27.0987 22.1812C27.3307 20.4478 27.3334 18.1705 27.3334 14.9998V12.9998C27.3334 12.7346 27.4388 12.4803 27.6263 12.2927C27.8138 12.1052 28.0682 11.9998 28.3334 11.9998C28.5986 11.9998 28.853 12.1052 29.0405 12.2927C29.2281 12.4803 29.3334 12.7346 29.3334 12.9998V15.0758C29.3334 18.1545 29.3334 20.5665 29.0801 22.4492C28.8214 24.3745 28.2801 25.8945 27.0881 27.0878C25.8947 28.2812 24.3747 28.8212 22.4481 29.0798C20.5667 29.3332 18.1547 29.3332 15.0761 29.3332H14.9241C11.8454 29.3332 9.43341 29.3332 7.55075 29.0798C5.62541 28.8212 4.10541 28.2798 2.91208 27.0878C1.71875 25.8945 1.17875 24.3745 0.920081 22.4478C0.666748 20.5665 0.666748 18.1545 0.666748 15.0758V14.9238C0.666748 11.8452 0.666748 9.43317 0.920081 7.5505C1.17875 5.62517 1.72008 4.10517 2.91208 2.91184C4.10541 1.7185 5.62541 1.1785 7.55208 0.919837C9.43341 0.666504 11.8454 0.666504 14.9241 0.666504ZM21.3601 2.0345C22.24 1.17883 23.4213 0.7039 24.6487 0.712408C25.876 0.720917 27.0507 1.21218 27.9186 2.07997C28.7866 2.94776 29.2781 4.12231 29.2868 5.34964C29.2956 6.57697 28.8209 7.75842 27.9654 8.6385L19.1014 17.5038C18.6067 17.9972 18.2961 18.3092 17.9507 18.5785C17.5432 18.897 17.1019 19.1697 16.6347 19.3918C16.2387 19.5798 15.8214 19.7185 15.1587 19.9398L11.2854 21.2305C10.935 21.3472 10.559 21.3641 10.1995 21.2791C9.84005 21.1942 9.51133 21.0109 9.25016 20.7498C8.98898 20.4886 8.80568 20.1599 8.72077 19.8004C8.63586 19.4409 8.65271 19.0649 8.76941 18.7145L10.0601 14.8412C10.2814 14.1772 10.4201 13.7612 10.6081 13.3652C10.8321 12.8976 11.1032 12.4589 11.4214 12.0492C11.6907 11.7025 12.0014 11.3932 12.4961 10.8985L21.3601 2.0345ZM26.5507 3.44784C26.0499 2.94726 25.3708 2.66606 24.6627 2.66606C23.9547 2.66606 23.2756 2.94726 22.7747 3.44784L22.2734 3.9505C22.3019 4.07939 22.3454 4.22961 22.4041 4.40117C22.5947 4.95184 22.9574 5.67717 23.6401 6.35984C24.3049 7.02485 25.1375 7.49716 26.0494 7.7265L26.5507 7.22517C27.0513 6.72436 27.3325 6.04526 27.3325 5.33717C27.3325 4.62908 27.0513 3.94865 26.5507 3.44784ZM24.4734 9.30384C23.6339 8.94185 22.8709 8.42328 22.2254 7.77584C21.578 7.13031 21.0594 6.36739 20.6974 5.52784L13.9574 12.2665C13.4014 12.8225 13.1841 13.0425 12.9974 13.2798C12.7707 13.5742 12.5755 13.8915 12.4147 14.2265C12.2841 14.4972 12.1854 14.7905 11.9361 15.5358L11.3614 17.2625L12.7374 18.6398L14.4641 18.0638C15.2107 17.8145 15.5027 17.7158 15.7747 17.5865C16.1107 17.4265 16.4263 17.2314 16.7214 17.0012C16.9574 16.8158 17.1774 16.5985 17.7334 16.0438L24.4734 9.30384Z" fill="#AD6049"/>
</svg>
