<svg width="30" height="30" viewBox="0 0 30 30" fill="none" xmlns="http://www.w3.org/2000/svg">
<path fill-rule="evenodd" clip-rule="evenodd" d="M22.208 0.666504H23.2227C24.3853 0.666504 25.356 0.666504 26.1293 0.770504C26.9427 0.879837 27.684 1.11984 28.28 1.7145C28.876 2.30917 29.12 3.04917 29.2293 3.86384C29.3333 4.6345 29.3333 5.6025 29.3333 6.76117V7.7745C29.3333 9.1745 29.3333 10.1572 28.96 11.0558C28.5867 11.9545 27.8907 12.6492 26.8973 13.6385L26.764 13.7718L23.204 17.3212L23.328 17.5118C23.8533 18.3225 24.2787 18.9785 24.5853 19.5452C24.9027 20.1318 25.1293 20.6825 25.22 21.2918C25.3624 22.2766 25.2333 23.2817 24.8467 24.1985C24.704 24.5425 24.4573 24.9012 24.204 25.2278C23.9373 25.5718 23.612 25.9452 23.2627 26.3252C22.5226 27.117 21.766 27.8932 20.9933 28.6532L20.872 28.7732C19.912 29.7305 18.248 29.4212 17.736 28.1372C17.4333 27.3745 17.3093 27.0705 17.156 26.7905C17.0137 26.5307 16.8501 26.2832 16.6667 26.0505C16.472 25.8012 16.2453 25.5705 15.68 25.0092L15.0067 24.4185L14.98 24.3932C14.8541 24.4102 14.7271 24.4182 14.6 24.4172C13.7573 24.4172 13.0627 24.0665 12.408 23.5678C11.7893 23.0972 11.1013 22.4118 10.28 21.5932L8.35068 19.6692C7.52934 18.8505 6.84268 18.1652 6.36934 17.5478C5.87068 16.8945 5.51601 16.2012 5.51601 15.3585C5.5169 15.2074 5.52846 15.0576 5.55068 14.9092L4.44401 13.8065L4.32801 13.6905C3.78985 13.168 3.14991 12.7618 2.44801 12.4972L1.94401 12.2972C1.63244 12.1741 1.3564 11.9754 1.14077 11.719C0.925137 11.4627 0.776702 11.1566 0.708842 10.8286C0.640983 10.5005 0.655832 10.1608 0.752052 9.83987C0.848272 9.51899 1.02284 9.22709 1.26001 8.9905L1.26934 8.97984C2.0319 8.20961 2.81028 7.45523 3.60401 6.71717C3.98668 6.36917 4.36134 6.04517 4.70401 5.77984C5.03334 5.5265 5.39334 5.27984 5.73601 5.1385C6.65526 4.75374 7.66169 4.62563 8.64801 4.76784C9.25734 4.85717 9.80801 5.0825 10.396 5.39984C10.964 5.7065 11.6227 6.12917 12.436 6.65317L12.6333 6.77984L16.196 3.2265L16.3293 3.0945C17.3213 2.10384 18.0173 1.40917 18.9187 1.03717C19.82 0.665171 20.8027 0.666504 22.208 0.666504ZM11.1827 8.22517C10.436 7.74517 9.89868 7.40384 9.44801 7.15984C8.96801 6.9025 8.64801 6.78917 8.35468 6.7465C7.72668 6.65696 7.08616 6.73945 6.50134 6.98517C6.29627 7.09028 6.10315 7.21724 5.92534 7.36384C5.64268 7.58117 5.31334 7.86517 4.95201 8.1945C4.1767 8.91543 3.41653 9.65248 2.67201 10.4052L2.66668 10.4132V10.4225L2.67068 10.4332L2.68134 10.4385L3.19201 10.6412L3.36268 10.7092C4.23955 11.0703 5.03958 11.5953 5.72001 12.2558C5.75734 12.2905 5.79334 12.3265 5.85068 12.3852L6.48801 13.0198C6.57512 12.9114 6.66579 12.8038 6.76001 12.6972C7.18934 12.2065 7.74001 11.6572 8.37868 11.0212L11.1827 8.22517ZM16.9387 23.4518L17.0467 23.5465L17.116 23.6158C17.636 24.1358 17.96 24.4558 18.2413 24.8158C18.4911 25.1358 18.7138 25.4736 18.9093 25.8292C19.1227 26.2172 19.288 26.6265 19.5453 27.2732L19.572 27.2465C20.3269 26.5043 21.0661 25.7463 21.7893 24.9732C22.12 24.6132 22.4053 24.2838 22.6227 24.0025C22.7704 23.8263 22.8979 23.6339 23.0027 23.4292C23.2487 22.8477 23.3312 22.2101 23.2413 21.5852C23.1987 21.2945 23.0853 20.9758 22.828 20.4985C22.5827 20.0478 22.24 19.5118 21.756 18.7652L18.944 21.5678C18.2907 22.2185 17.728 22.7798 17.228 23.2118C17.133 23.2935 17.0365 23.3735 16.9387 23.4518ZM22.396 2.6665C20.7267 2.6665 20.1693 2.68384 19.6813 2.88517C19.1947 3.0865 18.788 3.4665 17.608 4.64384L9.81201 12.4158C9.14801 13.0785 8.64401 13.5812 8.26534 14.0158C7.88268 14.4492 7.68801 14.7478 7.59334 14.9825C7.54179 15.1011 7.51546 15.2292 7.51601 15.3585C7.51601 15.5852 7.59468 15.8572 7.95868 16.3318C8.33868 16.8305 8.92935 17.4212 9.81201 18.3025L10.0213 18.5105L12.0613 16.4758C12.2493 16.2884 12.504 16.1833 12.7694 16.1837C13.0349 16.1841 13.2893 16.2899 13.4767 16.4778C13.6641 16.6658 13.7692 16.9205 13.7688 17.1859C13.7684 17.4513 13.6626 17.7058 13.4747 17.8932L11.4387 19.9225L11.6427 20.1278C12.5267 21.0078 13.1187 21.5958 13.6187 21.9758C14.096 22.3385 14.3693 22.4172 14.6 22.4172C14.7186 22.4181 14.8362 22.3963 14.9467 22.3532C15.18 22.2678 15.4773 22.0812 15.92 21.6998C16.36 21.3185 16.8747 20.8065 17.556 20.1265L25.352 12.3558C26.532 11.1785 26.912 10.7745 27.1133 10.2892C27.3147 9.80384 27.3333 9.25184 27.3333 7.5865V6.8305C27.3333 5.58517 27.3307 4.7505 27.2467 4.1305C27.1667 3.53984 27.0307 3.29184 26.868 3.1305C26.7053 2.96917 26.4573 2.83184 25.8627 2.75184C25.2387 2.66917 24.4027 2.6665 23.1533 2.6665H22.396ZM21.2173 8.76517C20.9185 8.4679 20.5142 8.30103 20.0927 8.30103C19.6712 8.30103 19.2668 8.4679 18.968 8.76517C18.8205 8.91144 18.7033 9.08549 18.6234 9.27726C18.5435 9.46904 18.5024 9.67474 18.5024 9.8825C18.5024 10.0903 18.5435 10.296 18.6234 10.4877C18.7033 10.6795 18.8205 10.8536 18.968 10.9998C19.2668 11.2971 19.6712 11.464 20.0927 11.464C20.5142 11.464 20.9185 11.2971 21.2173 10.9998C21.3649 10.8536 21.482 10.6795 21.5619 10.4877C21.6419 10.296 21.683 10.0903 21.683 9.8825C21.683 9.67474 21.6419 9.46904 21.5619 9.27726C21.482 9.08549 21.3649 8.91144 21.2173 8.76517ZM17.556 7.3465C18.2298 6.67511 19.1422 6.29812 20.0933 6.29812C21.0445 6.29812 21.9569 6.67511 22.6307 7.3465C22.9647 7.67858 23.2297 8.07341 23.4106 8.50829C23.5915 8.94317 23.6846 9.40951 23.6846 9.8805C23.6846 10.3515 23.5915 10.8178 23.4106 11.2527C23.2297 11.6876 22.9647 12.0824 22.6307 12.4145C21.9569 13.0859 21.0445 13.4629 20.0933 13.4629C19.1422 13.4629 18.2298 13.0859 17.556 12.4145C17.2222 12.0824 16.9573 11.6877 16.7766 11.2529C16.5958 10.8182 16.5028 10.352 16.5028 9.88117C16.5028 9.41034 16.5958 8.94415 16.7766 8.5094C16.9573 8.07464 17.2222 7.67856 17.556 7.3465Z" fill="#AD6049"/>
</svg>
