<svg width="32" height="32" viewBox="0 0 32 32" fill="none" xmlns="http://www.w3.org/2000/svg">
<path d="M30.5125 15.3286C30.4013 15.1331 30.2523 14.9617 30.0742 14.8243C29.8961 14.687 29.6924 14.5865 29.475 14.5286C28.4891 14.2765 27.4677 14.192 26.4538 14.2786C27.0375 11.6999 26.6563 9.66488 26.2725 8.47863C26.1386 8.05957 25.8534 7.7054 25.4726 7.48517C25.0917 7.26493 24.6425 7.19442 24.2125 7.28738C22.8778 7.58671 21.6142 8.14334 20.4925 8.92613C19.7119 7.22787 18.5316 5.74391 17.0525 4.60113C16.749 4.37246 16.3794 4.24878 15.9994 4.24878C15.6194 4.24878 15.2497 4.37246 14.9463 4.60113C13.468 5.74441 12.2882 7.22826 11.5075 8.92613C10.3854 8.14319 9.1214 7.58655 7.78626 7.28738C7.35626 7.19453 6.90709 7.26526 6.52642 7.48575C6.14576 7.70625 5.86092 8.06068 5.72751 8.47988C5.34376 9.66613 4.96251 11.7011 5.54626 14.2799C4.53228 14.1932 3.51095 14.2777 2.52501 14.5299C2.30764 14.5877 2.10396 14.6882 1.92584 14.8256C1.74772 14.9629 1.59871 15.1344 1.48751 15.3299C1.37064 15.5308 1.29497 15.753 1.26493 15.9835C1.23488 16.214 1.25105 16.4482 1.31251 16.6724C1.72626 18.2074 3.00001 21.1249 6.86501 23.4386C10.73 25.7524 14.1613 25.7499 16 25.7499C17.8388 25.7499 21.265 25.7499 25.1325 23.4386C29 21.1274 30.2713 18.2074 30.685 16.6711C30.7468 16.4471 30.7634 16.213 30.7338 15.9825C30.7042 15.752 30.629 15.5297 30.5125 15.3286ZM21.06 10.3624C22.0892 9.58633 23.2709 9.03679 24.5275 8.74988C24.5943 8.73626 24.6637 8.74789 24.7223 8.78253C24.781 8.81717 24.8247 8.87235 24.845 8.93738C25.3375 10.4649 25.8213 13.6249 23.5213 17.6249C22.5979 19.2025 21.4146 20.6128 20.0213 21.7961C20.9813 20.1249 21.75 17.8661 21.75 14.8961C21.7617 13.3579 21.5288 11.8275 21.06 10.3624ZM7.15501 8.94113C7.17456 8.87541 7.21796 8.81936 7.2767 8.78398C7.33543 8.7486 7.40527 8.73643 7.47251 8.74988C8.72914 9.03679 9.91084 9.58633 10.94 10.3624C10.4712 11.8275 10.2383 13.3579 10.25 14.8961C10.25 17.8661 11.0188 20.1274 11.9763 21.7924C10.5826 20.6094 9.39922 19.1991 8.47626 17.6211C6.17876 13.6249 6.66251 10.4649 7.15501 8.94113ZM7.63501 22.1499C4.22251 20.1111 3.11626 17.5974 2.76001 16.2749C2.75067 16.2413 2.74818 16.2062 2.75269 16.1716C2.7572 16.137 2.76861 16.1037 2.78626 16.0736C2.8133 16.0253 2.85815 15.9894 2.91126 15.9736C3.92151 15.7227 4.97185 15.6772 6.00001 15.8399C6.31701 16.7181 6.71148 17.5665 7.17876 18.3749C8.46122 20.588 10.21 22.4955 12.3038 23.9649C10.6531 23.6383 9.07281 23.0239 7.63501 22.1499ZM16 24.1074C14.915 23.3324 11.75 20.5824 11.75 14.8961C11.75 9.47613 14.6175 6.72863 15.85 5.79863C15.8933 5.76617 15.9459 5.74863 16 5.74863C16.0541 5.74863 16.1067 5.76617 16.15 5.79863C17.3825 6.72863 20.25 9.47613 20.25 14.8961C20.25 20.6174 17.1013 23.3336 16 24.1074ZM29.2375 16.2799C28.8813 17.5974 27.775 20.1111 24.3625 22.1549C22.9231 23.0271 21.3415 23.6394 19.69 23.9636C21.7837 22.4943 23.5325 20.5868 24.815 18.3736C25.2844 17.5659 25.6809 16.7179 26 15.8399C27.0293 15.6785 28.0805 15.7257 29.0913 15.9786C29.1444 15.9944 29.1892 16.0303 29.2163 16.0786C29.2335 16.1089 29.2445 16.1423 29.2485 16.1768C29.2526 16.2114 29.2497 16.2465 29.24 16.2799H29.2375Z" fill="#AD6049"/>
</svg>
