<svg width="40" height="40" viewBox="0 0 40 40" fill="none" xmlns="http://www.w3.org/2000/svg">
<path d="M6.66663 20.0002C6.66663 20.4422 6.84222 20.8661 7.15478 21.1787C7.46734 21.4912 7.89127 21.6668 8.33329 21.6668C8.77532 21.6668 9.19924 21.4912 9.5118 21.1787C9.82436 20.8661 9.99996 20.4422 9.99996 20.0002C9.99996 19.5581 9.82436 19.1342 9.5118 18.8217C9.19924 18.5091 8.77532 18.3335 8.33329 18.3335C7.89127 18.3335 7.46734 18.5091 7.15478 18.8217C6.84222 19.1342 6.66663 19.5581 6.66663 20.0002ZM18.3333 20.0002C18.3333 20.4422 18.5089 20.8661 18.8214 21.1787C19.134 21.4912 19.5579 21.6668 20 21.6668C20.442 21.6668 20.8659 21.4912 21.1785 21.1787C21.491 20.8661 21.6666 20.4422 21.6666 20.0002C21.6666 19.5581 21.491 19.1342 21.1785 18.8217C20.8659 18.5091 20.442 18.3335 20 18.3335C19.5579 18.3335 19.134 18.5091 18.8214 18.8217C18.5089 19.1342 18.3333 19.5581 18.3333 20.0002ZM30 20.0002C30 20.4422 30.1756 20.8661 30.4881 21.1787C30.8007 21.4912 31.2246 21.6668 31.6666 21.6668C32.1087 21.6668 32.5326 21.4912 32.8451 21.1787C33.1577 20.8661 33.3333 20.4422 33.3333 20.0002C33.3333 19.5581 33.1577 19.1342 32.8451 18.8217C32.5326 18.5091 32.1087 18.3335 31.6666 18.3335C31.2246 18.3335 30.8007 18.5091 30.4881 18.8217C30.1756 19.1342 30 19.5581 30 20.0002Z" fill="#AD6049" stroke="#AD6049" stroke-width="3" stroke-linecap="round" stroke-linejoin="round"/>
</svg>
